{
	"asset":{
		"generator":"Khronos glTF Blender I/O v4.5.49",
		"version":"2.0"
	},
	"scene":0,
	"scenes":[
		{
			"name":"Scene",
			"nodes":[
				18
			]
		}
	],
	"nodes":[
		{
			"mesh":0,
			"name":"Lens_1",
			"rotation":[
				0,
				0,
				0.7071068286895752,
				0.7071068286895752
			],
			"translation":[
				0.08731433004140854,
				0,
				0
			]
		},
		{
			"mesh":1,
			"name":"Reflector_1",
			"rotation":[
				0,
				0,
				0.7071068286895752,
				0.7071068286895752
			],
			"translation":[
				0.07066668570041656,
				0,
				0
			]
		},
		{
			"children":[
				0,
				1
			],
			"name":"Grp_Bulb_1",
			"translation":[
				-0.07866638153791428,
				0,
				0
			]
		},
		{
			"children":[
				2
			],
			"name":"Grp_Bulbs_Attention_Stop"
		},
		{
			"mesh":2,
			"name":"Lens_0",
			"rotation":[
				0,
				0,
				0.7071068286895752,
				0.7071068286895752
			],
			"translation":[
				0.08731433004140854,
				0,
				0
			]
		},
		{
			"mesh":3,
			"name":"Reflector_0",
			"rotation":[
				0,
				0,
				0.7071068286895752,
				0.7071068286895752
			],
			"translation":[
				0.07066668570041656,
				0,
				0
			]
		},
		{
			"children":[
				4,
				5
			],
			"name":"Grp_Bulb_0",
			"translation":[
				-0.07866638153791428,
				-0.25999999046325684,
				0
			]
		},
		{
			"children":[
				6
			],
			"name":"Grp_Bulbs_Go"
		},
		{
			"mesh":4,
			"name":"Lens_2",
			"rotation":[
				0,
				0,
				0.7071068286895752,
				0.7071068286895752
			],
			"translation":[
				0.08731433004140854,
				0,
				0
			]
		},
		{
			"mesh":5,
			"name":"Reflector_2",
			"rotation":[
				0,
				0,
				0.7071068286895752,
				0.7071068286895752
			],
			"translation":[
				0.07066668570041656,
				0,
				0
			]
		},
		{
			"children":[
				8,
				9
			],
			"name":"Grp_Bulb_2",
			"translation":[
				-0.07866638153791428,
				0.25999999046325684,
				0
			]
		},
		{
			"children":[
				10
			],
			"name":"Grp_Bulbs_Stop"
		},
		{
			"mesh":6,
			"name":"Hood_0",
			"rotation":[
				0,
				0,
				0.7071068286895752,
				0.7071068286895752
			],
			"translation":[
				0.12480577826499939,
				-0.25999999046325684,
				0
			]
		},
		{
			"mesh":7,
			"name":"Hood_1",
			"rotation":[
				0,
				0,
				0.7071068286895752,
				0.7071068286895752
			],
			"translation":[
				0.12480577826499939,
				0,
				0
			]
		},
		{
			"mesh":8,
			"name":"Hood_2",
			"rotation":[
				0,
				0,
				0.7071068286895752,
				0.7071068286895752
			],
			"translation":[
				0.12480577826499939,
				0.25999999046325684,
				0
			]
		},
		{
			"mesh":9,
			"name":"Housing_0",
			"translation":[
				-0.09999968856573105,
				-0.25999999046325684,
				0
			]
		},
		{
			"mesh":10,
			"name":"Housing_1",
			"translation":[
				-0.09999968856573105,
				0,
				0
			]
		},
		{
			"mesh":11,
			"name":"Housing_2",
			"translation":[
				-0.10000000149011612,
				0.25999999046325684,
				0
			]
		},
		{
			"children":[
				3,
				7,
				11,
				12,
				13,
				14,
				15,
				16,
				17
			],
			"name":"Grp_Root"
		}
	],
	"materials":[
		{
			"alphaMode":"BLEND",
			"doubleSided":true,
			"name":"Bulb_Yellow",
			"pbrMetallicRoughness":{
				"baseColorFactor":[
					1,
					1,
					0,
					0.8999999761581421
				],
				"metallicFactor":0,
				"roughnessFactor":0.699999988079071
			}
		},
		{
			"doubleSided":true,
			"name":"Housing_Black",
			"pbrMetallicRoughness":{
				"baseColorFactor":[
					0,
					0,
					0,
					1
				],
				"metallicFactor":0,
				"roughnessFactor":0.5
			}
		},
		{
			"alphaMode":"BLEND",
			"doubleSided":true,
			"name":"Bulb_Green",
			"pbrMetallicRoughness":{
				"baseColorFactor":[
					0,
					1,
					0,
					0.8999999761581421
				],
				"metallicFactor":0,
				"roughnessFactor":0.699999988079071
			}
		},
		{
			"alphaMode":"BLEND",
			"doubleSided":true,
			"name":"Bulb_Red",
			"pbrMetallicRoughness":{
				"baseColorFactor":[
					1,
					0,
					0,
					0.8999999761581421
				],
				"metallicFactor":0,
				"roughnessFactor":0.5
			}
		}
	],
	"meshes":[
		{
			"name":"Cylinder.003",
			"primitives":[
				{
					"attributes":{
						"POSITION":0,
						"NORMAL":1,
						"TEXCOORD_0":2
					},
					"indices":3,
					"material":0
				}
			]
		},
		{
			"name":"Cylinder.001",
			"primitives":[
				{
					"attributes":{
						"POSITION":4,
						"NORMAL":5,
						"TEXCOORD_0":6
					},
					"indices":7,
					"material":1
				}
			]
		},
		{
			"name":"Cylinder.009",
			"primitives":[
				{
					"attributes":{
						"POSITION":8,
						"NORMAL":9,
						"TEXCOORD_0":10
					},
					"indices":11,
					"material":2
				}
			]
		},
		{
			"name":"Cylinder.010",
			"primitives":[
				{
					"attributes":{
						"POSITION":12,
						"NORMAL":13,
						"TEXCOORD_0":14
					},
					"indices":7,
					"material":1
				}
			]
		},
		{
			"name":"Cylinder.004",
			"primitives":[
				{
					"attributes":{
						"POSITION":15,
						"NORMAL":16,
						"TEXCOORD_0":17
					},
					"indices":3,
					"material":3
				}
			]
		},
		{
			"name":"Cylinder.002",
			"primitives":[
				{
					"attributes":{
						"POSITION":18,
						"NORMAL":19,
						"TEXCOORD_0":20
					},
					"indices":7,
					"material":1
				}
			]
		},
		{
			"name":"Cylinder.008",
			"primitives":[
				{
					"attributes":{
						"POSITION":21,
						"NORMAL":22,
						"TEXCOORD_0":23
					},
					"indices":24,
					"material":1
				}
			]
		},
		{
			"name":"Cylinder.007",
			"primitives":[
				{
					"attributes":{
						"POSITION":25,
						"NORMAL":26,
						"TEXCOORD_0":27
					},
					"indices":24,
					"material":1
				}
			]
		},
		{
			"name":"Cylinder.005",
			"primitives":[
				{
					"attributes":{
						"POSITION":28,
						"NORMAL":29,
						"TEXCOORD_0":30
					},
					"indices":24,
					"material":1
				}
			]
		},
		{
			"name":"Cube.003",
			"primitives":[
				{
					"attributes":{
						"POSITION":31,
						"NORMAL":32,
						"TEXCOORD_0":33
					},
					"indices":34,
					"material":1
				}
			]
		},
		{
			"name":"Cube",
			"primitives":[
				{
					"attributes":{
						"POSITION":35,
						"NORMAL":36,
						"TEXCOORD_0":37
					},
					"indices":34,
					"material":1
				}
			]
		},
		{
			"name":"Cube.002",
			"primitives":[
				{
					"attributes":{
						"POSITION":38,
						"NORMAL":39,
						"TEXCOORD_0":40
					},
					"indices":34,
					"material":1
				}
			]
		}
	],
	"accessors":[
		{
			"bufferView":0,
			"componentType":5126,
			"count":1408,
			"max":[
				0.10000000149011612,
				0.003999999724328518,
				0.10000000894069672
			],
			"min":[
				-0.10000000149011612,
				-0.011999986134469509,
				-0.10000000894069672
			],
			"type":"VEC3"
		},
		{
			"bufferView":1,
			"componentType":5126,
			"count":1408,
			"type":"VEC3"
		},
		{
			"bufferView":2,
			"componentType":5126,
			"count":1408,
			"type":"VEC2"
		},
		{
			"bufferView":3,
			"componentType":5123,
			"count":2292,
			"type":"SCALAR"
		},
		{
			"bufferView":4,
			"componentType":5126,
			"count":704,
			"max":[
				0.10000000894069672,
				0.07866668701171875,
				0.10000000894069672
			],
			"min":[
				-0.10000000894069672,
				-0.002000001724809408,
				-0.10000000894069672
			],
			"type":"VEC3"
		},
		{
			"bufferView":5,
			"componentType":5126,
			"count":704,
			"type":"VEC3"
		},
		{
			"bufferView":6,
			"componentType":5126,
			"count":704,
			"type":"VEC2"
		},
		{
			"bufferView":7,
			"componentType":5123,
			"count":1332,
			"type":"SCALAR"
		},
		{
			"bufferView":8,
			"componentType":5126,
			"count":1408,
			"max":[
				0.10000000149011612,
				0.003999999724328518,
				0.10000000894069672
			],
			"min":[
				-0.10000000149011612,
				-0.011999986134469509,
				-0.10000000894069672
			],
			"type":"VEC3"
		},
		{
			"bufferView":9,
			"componentType":5126,
			"count":1408,
			"type":"VEC3"
		},
		{
			"bufferView":10,
			"componentType":5126,
			"count":1408,
			"type":"VEC2"
		},
		{
			"bufferView":11,
			"componentType":5123,
			"count":2292,
			"type":"SCALAR"
		},
		{
			"bufferView":12,
			"componentType":5126,
			"count":704,
			"max":[
				0.10000000894069672,
				0.07866668701171875,
				0.10000000894069672
			],
			"min":[
				-0.10000000894069672,
				-0.002000001724809408,
				-0.10000000894069672
			],
			"type":"VEC3"
		},
		{
			"bufferView":13,
			"componentType":5126,
			"count":704,
			"type":"VEC3"
		},
		{
			"bufferView":14,
			"componentType":5126,
			"count":704,
			"type":"VEC2"
		},
		{
			"bufferView":15,
			"componentType":5126,
			"count":1408,
			"max":[
				0.10000000149011612,
				0.003999999724328518,
				0.10000000894069672
			],
			"min":[
				-0.10000000149011612,
				-0.011999986134469509,
				-0.10000000894069672
			],
			"type":"VEC3"
		},
		{
			"bufferView":16,
			"componentType":5126,
			"count":1408,
			"type":"VEC3"
		},
		{
			"bufferView":17,
			"componentType":5126,
			"count":1408,
			"type":"VEC2"
		},
		{
			"bufferView":18,
			"componentType":5126,
			"count":704,
			"max":[
				0.10000000894069672,
				0.07866668701171875,
				0.10000000894069672
			],
			"min":[
				-0.10000000894069672,
				-0.002000001724809408,
				-0.10000000894069672
			],
			"type":"VEC3"
		},
		{
			"bufferView":19,
			"componentType":5126,
			"count":704,
			"type":"VEC3"
		},
		{
			"bufferView":20,
			"componentType":5126,
			"count":704,
			"type":"VEC2"
		},
		{
			"bufferView":21,
			"componentType":5126,
			"count":726,
			"max":[
				0.1040000170469284,
				0.12480546534061432,
				0.10400000214576721
			],
			"min":[
				-0.10399999469518661,
				-0.12333333492279053,
				-0.10400000214576721
			],
			"type":"VEC3"
		},
		{
			"bufferView":22,
			"componentType":5126,
			"count":726,
			"type":"VEC3"
		},
		{
			"bufferView":23,
			"componentType":5126,
			"count":726,
			"type":"VEC2"
		},
		{
			"bufferView":24,
			"componentType":5123,
			"count":1098,
			"type":"SCALAR"
		},
		{
			"bufferView":25,
			"componentType":5126,
			"count":726,
			"max":[
				0.1040000170469284,
				0.12480546534061432,
				0.10400000214576721
			],
			"min":[
				-0.10399999469518661,
				-0.12333333492279053,
				-0.10400000214576721
			],
			"type":"VEC3"
		},
		{
			"bufferView":26,
			"componentType":5126,
			"count":726,
			"type":"VEC3"
		},
		{
			"bufferView":27,
			"componentType":5126,
			"count":726,
			"type":"VEC2"
		},
		{
			"bufferView":28,
			"componentType":5126,
			"count":726,
			"max":[
				0.1040000170469284,
				0.12480546534061432,
				0.10400000214576721
			],
			"min":[
				-0.10399999469518661,
				-0.12333333492279053,
				-0.10400000214576721
			],
			"type":"VEC3"
		},
		{
			"bufferView":29,
			"componentType":5126,
			"count":726,
			"type":"VEC3"
		},
		{
			"bufferView":30,
			"componentType":5126,
			"count":726,
			"type":"VEC2"
		},
		{
			"bufferView":31,
			"componentType":5126,
			"count":252,
			"max":[
				0.10000000149011612,
				0.12999999523162842,
				0.12999999523162842
			],
			"min":[
				-0.10000000149011612,
				-0.12999999523162842,
				-0.12999999523162842
			],
			"type":"VEC3"
		},
		{
			"bufferView":32,
			"componentType":5126,
			"count":252,
			"type":"VEC3"
		},
		{
			"bufferView":33,
			"componentType":5126,
			"count":252,
			"type":"VEC2"
		},
		{
			"bufferView":34,
			"componentType":5123,
			"count":522,
			"type":"SCALAR"
		},
		{
			"bufferView":35,
			"componentType":5126,
			"count":252,
			"max":[
				0.10000000149011612,
				0.12999999523162842,
				0.12999999523162842
			],
			"min":[
				-0.10000000149011612,
				-0.12999999523162842,
				-0.12999999523162842
			],
			"type":"VEC3"
		},
		{
			"bufferView":36,
			"componentType":5126,
			"count":252,
			"type":"VEC3"
		},
		{
			"bufferView":37,
			"componentType":5126,
			"count":252,
			"type":"VEC2"
		},
		{
			"bufferView":38,
			"componentType":5126,
			"count":252,
			"max":[
				0.10000000149011612,
				0.12999999523162842,
				0.12999999523162842
			],
			"min":[
				-0.10000000149011612,
				-0.12999999523162842,
				-0.12999999523162842
			],
			"type":"VEC3"
		},
		{
			"bufferView":39,
			"componentType":5126,
			"count":252,
			"type":"VEC3"
		},
		{
			"bufferView":40,
			"componentType":5126,
			"count":252,
			"type":"VEC2"
		}
	],
	"bufferViews":[
		{
			"buffer":0,
			"byteLength":16896,
			"byteOffset":0,
			"target":34962
		},
		{
			"buffer":0,
			"byteLength":16896,
			"byteOffset":16896,
			"target":34962
		},
		{
			"buffer":0,
			"byteLength":11264,
			"byteOffset":33792,
			"target":34962
		},
		{
			"buffer":0,
			"byteLength":4584,
			"byteOffset":45056,
			"target":34963
		},
		{
			"buffer":0,
			"byteLength":8448,
			"byteOffset":49640,
			"target":34962
		},
		{
			"buffer":0,
			"byteLength":8448,
			"byteOffset":58088,
			"target":34962
		},
		{
			"buffer":0,
			"byteLength":5632,
			"byteOffset":66536,
			"target":34962
		},
		{
			"buffer":0,
			"byteLength":2664,
			"byteOffset":72168,
			"target":34963
		},
		{
			"buffer":0,
			"byteLength":16896,
			"byteOffset":74832,
			"target":34962
		},
		{
			"buffer":0,
			"byteLength":16896,
			"byteOffset":91728,
			"target":34962
		},
		{
			"buffer":0,
			"byteLength":11264,
			"byteOffset":108624,
			"target":34962
		},
		{
			"buffer":0,
			"byteLength":4584,
			"byteOffset":119888,
			"target":34963
		},
		{
			"buffer":0,
			"byteLength":8448,
			"byteOffset":124472,
			"target":34962
		},
		{
			"buffer":0,
			"byteLength":8448,
			"byteOffset":132920,
			"target":34962
		},
		{
			"buffer":0,
			"byteLength":5632,
			"byteOffset":141368,
			"target":34962
		},
		{
			"buffer":0,
			"byteLength":16896,
			"byteOffset":147000,
			"target":34962
		},
		{
			"buffer":0,
			"byteLength":16896,
			"byteOffset":163896,
			"target":34962
		},
		{
			"buffer":0,
			"byteLength":11264,
			"byteOffset":180792,
			"target":34962
		},
		{
			"buffer":0,
			"byteLength":8448,
			"byteOffset":192056,
			"target":34962
		},
		{
			"buffer":0,
			"byteLength":8448,
			"byteOffset":200504,
			"target":34962
		},
		{
			"buffer":0,
			"byteLength":5632,
			"byteOffset":208952,
			"target":34962
		},
		{
			"buffer":0,
			"byteLength":8712,
			"byteOffset":214584,
			"target":34962
		},
		{
			"buffer":0,
			"byteLength":8712,
			"byteOffset":223296,
			"target":34962
		},
		{
			"buffer":0,
			"byteLength":5808,
			"byteOffset":232008,
			"target":34962
		},
		{
			"buffer":0,
			"byteLength":2196,
			"byteOffset":237816,
			"target":34963
		},
		{
			"buffer":0,
			"byteLength":8712,
			"byteOffset":240012,
			"target":34962
		},
		{
			"buffer":0,
			"byteLength":8712,
			"byteOffset":248724,
			"target":34962
		},
		{
			"buffer":0,
			"byteLength":5808,
			"byteOffset":257436,
			"target":34962
		},
		{
			"buffer":0,
			"byteLength":8712,
			"byteOffset":263244,
			"target":34962
		},
		{
			"buffer":0,
			"byteLength":8712,
			"byteOffset":271956,
			"target":34962
		},
		{
			"buffer":0,
			"byteLength":5808,
			"byteOffset":280668,
			"target":34962
		},
		{
			"buffer":0,
			"byteLength":3024,
			"byteOffset":286476,
			"target":34962
		},
		{
			"buffer":0,
			"byteLength":3024,
			"byteOffset":289500,
			"target":34962
		},
		{
			"buffer":0,
			"byteLength":2016,
			"byteOffset":292524,
			"target":34962
		},
		{
			"buffer":0,
			"byteLength":1044,
			"byteOffset":294540,
			"target":34963
		},
		{
			"buffer":0,
			"byteLength":3024,
			"byteOffset":295584,
			"target":34962
		},
		{
			"buffer":0,
			"byteLength":3024,
			"byteOffset":298608,
			"target":34962
		},
		{
			"buffer":0,
			"byteLength":2016,
			"byteOffset":301632,
			"target":34962
		},
		{
			"buffer":0,
			"byteLength":3024,
			"byteOffset":303648,
			"target":34962
		},
		{
			"buffer":0,
			"byteLength":3024,
			"byteOffset":306672,
			"target":34962
		},
		{
			"buffer":0,
			"byteLength":2016,
			"byteOffset":309696,
			"target":34962
		}
	],
	"buffers":[
		{
			"byteLength":311712,
			"uri":"trafficlight_example.bin"
		}
	]
}
