{
	"asset":{
		"generator":"Khronos glTF Blender I/O v4.5.51",
		"version":"2.0"
	},
	"extensionsUsed":[
		"KHR_lights_punctual"
	],
	"extensionsRequired":[
		"KHR_lights_punctual"
	],
	"extensions":{
		"KHR_lights_punctual":{
			"lights":[
				{
					"color":[
						1,
						0.006000041961669922,
						0
					],
					"intensity":3261.0847839529356,
					"type":"point",
					"name":"Point_Light_Indicator_Right_0.006"
				},
				{
					"color":[
						1,
						0.006000041961669922,
						0
					],
					"intensity":3261.0847839529356,
					"type":"point",
					"name":"Point_Light_Indicator_Right_0.007"
				},
				{
					"color":[
						1,
						1,
						1
					],
					"intensity":543514.1306588226,
					"spot":{
						"innerConeAngle":0.471238910371663,
						"outerConeAngle":0.5235987901687622
					},
					"type":"spot",
					"name":"Spot.004"
				},
				{
					"color":[
						1,
						1,
						1
					],
					"intensity":543514.1306588226,
					"spot":{
						"innerConeAngle":0.471238910371663,
						"outerConeAngle":0.5235987901687622
					},
					"type":"spot",
					"name":"Spot.005"
				},
				{
					"color":[
						1,
						1,
						1
					],
					"intensity":543514.1306588226,
					"spot":{
						"innerConeAngle":0.2356194551858315,
						"outerConeAngle":0.2617993950843811
					},
					"type":"spot",
					"name":"Spot.002"
				},
				{
					"color":[
						1,
						1,
						1
					],
					"intensity":543514.1306588226,
					"spot":{
						"innerConeAngle":0.2356194551858315,
						"outerConeAngle":0.2617993950843811
					},
					"type":"spot",
					"name":"Spot.003"
				},
				{
					"color":[
						1,
						0.17504841089248657,
						0.0294685959815979
					],
					"intensity":1087.0282613176453,
					"type":"point",
					"name":"Point_Light_Indicator_Right_0"
				},
				{
					"color":[
						1,
						0.10199999809265137,
						0
					],
					"intensity":1087.0282613176453,
					"type":"point",
					"name":"Point_Light_Indicator_Right_0.003"
				},
				{
					"color":[
						1,
						0.10208791494369507,
						0
					],
					"intensity":1087.0282613176453,
					"type":"point",
					"name":"Point_Light_Indicator_Right_0.001"
				},
				{
					"color":[
						1,
						0.10199999809265137,
						0
					],
					"intensity":1087.0282613176453,
					"type":"point",
					"name":"Point_Light_Indicator_Right_0.002"
				},
				{
					"color":[
						1,
						1,
						1
					],
					"intensity":271757.0653294113,
					"spot":{
						"innerConeAngle":0.35342918277874724,
						"outerConeAngle":0.39269909262657166
					},
					"type":"spot",
					"name":"Spot"
				},
				{
					"color":[
						1,
						1,
						1
					],
					"intensity":271757.0653294113,
					"spot":{
						"innerConeAngle":0.35342918277874724,
						"outerConeAngle":0.39269909262657166
					},
					"type":"spot",
					"name":"Spot.001"
				},
				{
					"color":[
						1,
						0.006000041961669922,
						0
					],
					"intensity":543.5141306588226,
					"type":"point",
					"name":"Point_Light_Indicator_Right_0.005"
				},
				{
					"color":[
						1,
						0.006599683314561844,
						0
					],
					"intensity":543.5141306588226,
					"type":"point",
					"name":"Point_Light_Indicator_Right_0.004"
				}
			]
		}
	},
	"scene":0,
	"scenes":[
		{
			"name":"Scene",
			"nodes":[
				132
			]
		}
	],
	"nodes":[
		{
			"mesh":0,
			"name":"Roof",
			"translation":[
				1.2544065713882446,
				0.33041998744010925,
				0
			]
		},
		{
			"mesh":1,
			"name":"Window_R",
			"translation":[
				1.2544065713882446,
				0.33041998744010925,
				0
			]
		},
		{
			"children":[
				0,
				1
			],
			"name":"Grp_Convertible_Top"
		},
		{
			"mesh":2,
			"name":"Door_FL",
			"rotation":[
				0,
				0,
				-1,
				1.7478846739112444e-14
			]
		},
		{
			"name":"Grp_Mirror_Side_View_Left_0",
			"translation":[
				0.032031282782554626,
				7.398426532745361e-06,
				9.466712072025985e-06
			]
		},
		{
			"mesh":3,
			"name":"Side_Mirror_L"
		},
		{
			"children":[
				4,
				5
			],
			"name":"Grp_Mirror_Side_Joint_Left_0",
			"rotation":[
				-0.058675333857536316,
				-0.9864494204521179,
				0.009097355417907238,
				0.15294456481933594
			],
			"translation":[
				0.0002263486385345459,
				0.0570797324180603,
				-0.07453465461730957
			]
		},
		{
			"mesh":4,
			"name":"Side_Mirror_Mount_L"
		},
		{
			"children":[
				6,
				7
			],
			"name":"Grp_Mirror_Side_Mounting_Left_0",
			"rotation":[
				0,
				0,
				-1,
				1.7478846739112444e-14
			],
			"translation":[
				0.20696482062339783,
				-0.29781585931777954,
				0.10607433319091797
			]
		},
		{
			"mesh":5,
			"name":"Window_FL",
			"rotation":[
				0,
				0,
				-1,
				1.7478846739112444e-14
			]
		},
		{
			"children":[
				3,
				8,
				9
			],
			"name":"Grp_Door_Left_0",
			"rotation":[
				0,
				0,
				1,
				1.7478846739112444e-14
			],
			"translation":[
				0.6640477776527405,
				0.5742824077606201,
				-0.8012483716011047
			]
		},
		{
			"mesh":6,
			"name":"Trunk_Lid",
			"rotation":[
				0,
				-1,
				0,
				7.549790126404332e-08
			]
		},
		{
			"children":[
				11
			],
			"name":"Grp_Door_Rear_0",
			"rotation":[
				0,
				0.7071068286895752,
				-0.7071068286895752,
				5.338508302088485e-08
			],
			"translation":[
				-1.3611124753952026,
				0.9129728674888611,
				0
			]
		},
		{
			"mesh":7,
			"name":"Door_FR",
			"rotation":[
				0,
				1,
				0,
				1.6292068494294654e-07
			]
		},
		{
			"name":"Grp_Mirror_Side_View_Right_0",
			"translation":[
				0.03202659636735916,
				7.448717951774597e-06,
				0.0005487570888362825
			]
		},
		{
			"mesh":8,
			"name":"Side_Mirror_R"
		},
		{
			"children":[
				14,
				15
			],
			"name":"Grp_Mirror_Side_Joint_Right_0",
			"rotation":[
				0.037181783467531204,
				0.9678691625595093,
				0.009546675719320774,
				0.24850688874721527
			],
			"translation":[
				0.0002263784408569336,
				0.05707967281341553,
				0.07453453540802002
			]
		},
		{
			"mesh":9,
			"name":"Side_Mirror_Mount_R"
		},
		{
			"children":[
				16,
				17
			],
			"name":"Grp_Mirror_Side_Mounting_Right_0",
			"rotation":[
				0,
				1,
				0,
				1.6292068494294654e-07
			],
			"translation":[
				0.20696495473384857,
				0.29781585931777954,
				0.1060740053653717
			]
		},
		{
			"mesh":10,
			"name":"Window_FR",
			"rotation":[
				0,
				1,
				0,
				1.6292068494294654e-07
			]
		},
		{
			"children":[
				13,
				18,
				19
			],
			"name":"Grp_Door_Right_0",
			"rotation":[
				0,
				-1,
				0,
				1.6292068494294654e-07
			],
			"translation":[
				0.6640480160713196,
				0.5742824077606201,
				0.8012480139732361
			]
		},
		{
			"mesh":11,
			"name":"License_Plate_F"
		},
		{
			"children":[
				21
			],
			"name":"Grp_License_Plate_0",
			"translation":[
				1.92228364944458,
				0.5499369502067566,
				0
			]
		},
		{
			"mesh":12,
			"name":"License_Plate_R"
		},
		{
			"children":[
				23
			],
			"name":"Grp_License_Plate_1",
			"rotation":[
				0,
				-1,
				0,
				1.6292068494294654e-07
			],
			"translation":[
				-1.9222835302352905,
				0.5499370098114014,
				0
			]
		},
		{
			"mesh":13,
			"name":"Light_Brake_Lens_BL"
		},
		{
			"mesh":14,
			"name":"Light_Brake_Reflector_BL"
		},
		{
			"extensions":{
				"KHR_lights_punctual":{
					"light":0
				}
			},
			"name":"Point_Light_Brake_Left_0",
			"rotation":[
				0,
				0.7071068286895752,
				0.7071068286895752,
				1.3767881057447084e-07
			]
		},
		{
			"children":[
				25,
				26,
				27
			],
			"name":"Grp_Light_Brake_Left_0",
			"rotation":[
				0,
				-1,
				0,
				1.6292068494294654e-07
			],
			"translation":[
				-1.8539128303527832,
				0.5266219973564148,
				-0.6504209637641907
			]
		},
		{
			"mesh":15,
			"name":"Light_Brake_Lens_BR"
		},
		{
			"mesh":16,
			"name":"Light_Brake_Reflector_BR"
		},
		{
			"extensions":{
				"KHR_lights_punctual":{
					"light":1
				}
			},
			"name":"Point_Light_Brake_Right_0",
			"rotation":[
				0,
				0.7071068286895752,
				0.7071068286895752,
				1.3767881057447084e-07
			]
		},
		{
			"children":[
				29,
				30,
				31
			],
			"name":"Grp_Light_Brake_Right_0",
			"rotation":[
				0,
				-1,
				0,
				1.6292068494294654e-07
			],
			"translation":[
				-1.853912591934204,
				0.5266219973564148,
				0.6504214406013489
			]
		},
		{
			"extensions":{
				"KHR_lights_punctual":{
					"light":2
				}
			},
			"name":"Spot_Light_Fog_Left_0",
			"rotation":[
				-0.5043441653251648,
				-0.4956178069114685,
				0.4956178367137909,
				0.5043441653251648
			]
		},
		{
			"children":[
				33
			],
			"name":"Grp_Light_Fog_Left_0",
			"translation":[
				1.7611651420593262,
				0.6593009829521179,
				-0.6364350914955139
			]
		},
		{
			"extensions":{
				"KHR_lights_punctual":{
					"light":3
				}
			},
			"name":"Spot_Light_Fog_Right_0",
			"rotation":[
				-0.5043441653251648,
				-0.4956178069114685,
				0.4956178367137909,
				0.5043441653251648
			]
		},
		{
			"children":[
				35
			],
			"name":"Grp_Light_Fog_Right_0",
			"translation":[
				1.761165738105774,
				0.6593009829521179,
				0.6364348530769348
			]
		},
		{
			"extensions":{
				"KHR_lights_punctual":{
					"light":4
				}
			},
			"name":"Spot_Light_High_Beam_Left_0",
			"rotation":[
				-0.5043441653251648,
				-0.4956178069114685,
				0.4956178367137909,
				0.5043441653251648
			]
		},
		{
			"children":[
				37
			],
			"name":"Grp_Light_High_Beam_Left_0",
			"translation":[
				1.7611651420593262,
				0.6593009829521179,
				-0.6364350914955139
			]
		},
		{
			"extensions":{
				"KHR_lights_punctual":{
					"light":5
				}
			},
			"name":"Spot_Light_High_Beam_Right",
			"rotation":[
				-0.5043441653251648,
				-0.4956178069114685,
				0.4956178367137909,
				0.5043441653251648
			]
		},
		{
			"children":[
				39
			],
			"name":"Grp_Light_High_Beam_Right_0",
			"translation":[
				1.761165738105774,
				0.6593009829521179,
				0.6364348530769348
			]
		},
		{
			"mesh":17,
			"name":"Indicator_Lens_FL"
		},
		{
			"mesh":18,
			"name":"Indicator_Reflector_FL"
		},
		{
			"extensions":{
				"KHR_lights_punctual":{
					"light":6
				}
			},
			"name":"Point_Light_Indicator_Left_0",
			"rotation":[
				-0.7071068286895752,
				0,
				0,
				0.7071068286895752
			]
		},
		{
			"children":[
				41,
				42,
				43
			],
			"name":"Grp_Light_Indicator_Left_0",
			"translation":[
				1.7742204666137695,
				0.4794909954071045,
				-0.6348510980606079
			]
		},
		{
			"mesh":19,
			"name":"Indicator_Lens_BL"
		},
		{
			"mesh":20,
			"name":"Indicator_Reflector_BL"
		},
		{
			"extensions":{
				"KHR_lights_punctual":{
					"light":7
				}
			},
			"name":"Point_Light_Indicator_Left_1",
			"rotation":[
				0,
				0.7071068286895752,
				0.7071068286895752,
				1.3767881057447084e-07
			]
		},
		{
			"children":[
				45,
				46,
				47
			],
			"name":"Grp_Light_Indicator_Left_1",
			"rotation":[
				0,
				-1,
				0,
				1.6292068494294654e-07
			],
			"translation":[
				-1.8539128303527832,
				0.6453580260276794,
				-0.6504209637641907
			]
		},
		{
			"mesh":21,
			"name":"Indicator_Lens_FR"
		},
		{
			"mesh":22,
			"name":"Indicator_Reflector_FR"
		},
		{
			"extensions":{
				"KHR_lights_punctual":{
					"light":8
				}
			},
			"name":"Point_Light_Indicator_Right_0",
			"rotation":[
				-0.7071068286895752,
				0,
				0,
				0.7071068286895752
			]
		},
		{
			"children":[
				49,
				50,
				51
			],
			"name":"Grp_Light_Indicator_Right_0",
			"translation":[
				1.7742207050323486,
				0.4794909954071045,
				0.6348508596420288
			]
		},
		{
			"mesh":23,
			"name":"Indicator_Lens_BR"
		},
		{
			"mesh":24,
			"name":"Indicator_Reflector_BR"
		},
		{
			"extensions":{
				"KHR_lights_punctual":{
					"light":9
				}
			},
			"name":"Point_Light_Indicator_Right_1",
			"rotation":[
				0,
				0.7071068286895752,
				0.7071068286895752,
				1.3767881057447084e-07
			]
		},
		{
			"children":[
				53,
				54,
				55
			],
			"name":"Grp_Light_Indicator_Right_1",
			"rotation":[
				0,
				-1,
				0,
				1.6292068494294654e-07
			],
			"translation":[
				-1.853912591934204,
				0.6453580260276794,
				0.6504214406013489
			]
		},
		{
			"mesh":25,
			"name":"Light_Low_Beam_Lens_FL"
		},
		{
			"mesh":26,
			"name":"Light_Low_Beam_Reflector_FL"
		},
		{
			"extensions":{
				"KHR_lights_punctual":{
					"light":10
				}
			},
			"name":"Spot_Light_Low_Beam_Left_0",
			"rotation":[
				-0.5129169821739197,
				-0.48674023151397705,
				0.48674023151397705,
				0.512917160987854
			]
		},
		{
			"children":[
				57,
				58,
				59
			],
			"name":"Grp_Light_Low_Beam_Left_0",
			"translation":[
				1.7611651420593262,
				0.6593009829521179,
				-0.6364350914955139
			]
		},
		{
			"mesh":27,
			"name":"Light_Low_Beam_Lens_FR"
		},
		{
			"mesh":28,
			"name":"Light_Low_Beam_Reflector_FR"
		},
		{
			"extensions":{
				"KHR_lights_punctual":{
					"light":11
				}
			},
			"name":"Spot_Light_Low_Beam_Right_0",
			"rotation":[
				-0.5129169821739197,
				-0.48674023151397705,
				0.48674023151397705,
				0.512917160987854
			]
		},
		{
			"children":[
				61,
				62,
				63
			],
			"name":"Grp_Light_Low_Beam_Right_0",
			"translation":[
				1.761165738105774,
				0.6593009829521179,
				0.6364348530769348
			]
		},
		{
			"mesh":29,
			"name":"Light_Tail_Lens_BL"
		},
		{
			"mesh":30,
			"name":"Light_Tail_Reflector_BL"
		},
		{
			"extensions":{
				"KHR_lights_punctual":{
					"light":12
				}
			},
			"name":"Point_Light_Tail_Left_0",
			"rotation":[
				0,
				0.7071068286895752,
				0.7071068286895752,
				1.3767881057447084e-07
			]
		},
		{
			"children":[
				65,
				66,
				67
			],
			"name":"Grp_Light_Tail_Left_0",
			"rotation":[
				0,
				-1,
				0,
				1.6292068494294654e-07
			],
			"translation":[
				-1.8539128303527832,
				0.5859900116920471,
				-0.6504209637641907
			]
		},
		{
			"mesh":31,
			"name":"Light_Tail_Lens_BR"
		},
		{
			"mesh":32,
			"name":"Light_Tail_Reflector_BR"
		},
		{
			"extensions":{
				"KHR_lights_punctual":{
					"light":13
				}
			},
			"name":"Point_Light_Tail_Right_0",
			"rotation":[
				0,
				0.7071068286895752,
				0.7071068286895752,
				1.3767881057447084e-07
			]
		},
		{
			"children":[
				69,
				70,
				71
			],
			"name":"Grp_Light_Tail_Right_0",
			"rotation":[
				0,
				-1,
				0,
				1.6292068494294654e-07
			],
			"translation":[
				-1.853912591934204,
				0.5859900116920471,
				0.6504214406013489
			]
		},
		{
			"name":"Grp_Rear_Axle_Center",
			"translation":[
				-1.1455934047698975,
				0.33041998744010925,
				0
			]
		},
		{
			"mesh":33,
			"name":"Brake_FR"
		},
		{
			"children":[
				74
			],
			"name":"Grp_Wheel_Steering_0_0"
		},
		{
			"mesh":34,
			"name":"BrakeRotor_FR"
		},
		{
			"mesh":35,
			"name":"Rim_FR"
		},
		{
			"mesh":36,
			"name":"Tire_FR"
		},
		{
			"children":[
				76,
				77,
				78
			],
			"name":"Grp_Wheel_Steering_Rotating_0_0"
		},
		{
			"children":[
				75,
				79
			],
			"name":"Grp_Wheel_0_0",
			"translation":[
				1.2544066905975342,
				0.33041998744010925,
				0.6589999198913574
			]
		},
		{
			"mesh":37,
			"name":"Brake_FL"
		},
		{
			"children":[
				81
			],
			"name":"Grp_Wheel_Steering_0_1"
		},
		{
			"mesh":38,
			"name":"BrakeRotor_FL"
		},
		{
			"mesh":39,
			"name":"Rim_FL"
		},
		{
			"mesh":40,
			"name":"Tire_FL"
		},
		{
			"children":[
				83,
				84,
				85
			],
			"name":"Grp_Wheel_Steering_Rotating_0_1"
		},
		{
			"children":[
				82,
				86
			],
			"name":"Grp_Wheel_0_1",
			"translation":[
				1.254406452178955,
				0.33041998744010925,
				-0.659000039100647
			]
		},
		{
			"mesh":41,
			"name":"Brake_BR",
			"translation":[
				0.1096951961517334,
				0,
				0
			]
		},
		{
			"children":[
				88
			],
			"name":"Grp_Wheel_Steering_1_0"
		},
		{
			"mesh":42,
			"name":"BrakeRotor_BR",
			"translation":[
				0,
				0,
				-0.0012055039405822754
			]
		},
		{
			"mesh":43,
			"name":"Rim_BR"
		},
		{
			"mesh":44,
			"name":"Tire_BR"
		},
		{
			"children":[
				90,
				91,
				92
			],
			"name":"Grp_Wheel_Steering_Rotating_1_0"
		},
		{
			"children":[
				89,
				93
			],
			"name":"Grp_Wheel_1_0",
			"translation":[
				-1.1455934047698975,
				0.33041998744010925,
				0.6590000987052917
			]
		},
		{
			"mesh":45,
			"name":"Brake_BL"
		},
		{
			"children":[
				95
			],
			"name":"Grp_Wheel_Steering_1_1"
		},
		{
			"mesh":46,
			"name":"BrakeRotor_BL"
		},
		{
			"mesh":47,
			"name":"Rim_BL"
		},
		{
			"mesh":48,
			"name":"Tire_BL"
		},
		{
			"children":[
				97,
				98,
				99
			],
			"name":"Grp_Wheel_Steering_Rotating_1_1"
		},
		{
			"children":[
				96,
				100
			],
			"name":"Grp_Wheel_1_1",
			"translation":[
				-1.1455934047698975,
				0.33041998744010925,
				-0.6589996814727783
			]
		},
		{
			"children":[
				2,
				10,
				12,
				20,
				22,
				24,
				28,
				32,
				34,
				36,
				38,
				40,
				44,
				48,
				52,
				56,
				60,
				64,
				68,
				72,
				73,
				80,
				87,
				94,
				101
			],
			"name":"Grp_Exterior_Dynamic"
		},
		{
			"mesh":49,
			"name":"Body",
			"translation":[
				-0.0005934238433837891,
				0.6474199891090393,
				0
			]
		},
		{
			"name":"Body.002",
			"translation":[
				-0.0005934238433837891,
				0.6474199891090393,
				0
			]
		},
		{
			"mesh":50,
			"name":"Window_F",
			"translation":[
				-0.0005934238433837891,
				0.6474199891090393,
				0
			]
		},
		{
			"children":[
				103,
				104,
				105
			],
			"name":"Grp_Exterior_Static"
		},
		{
			"children":[
				102,
				106
			],
			"name":"Grp_Exterior"
		},
		{
			"name":"Grp_Eyepoint_0",
			"translation":[
				-0.11009149253368378,
				1.104660153388977,
				-0.29885879158973694
			]
		},
		{
			"mesh":51,
			"name":"Center_Mirror_Mount"
		},
		{
			"mesh":52,
			"name":"Center_Mirror"
		},
		{
			"name":"Grp_Mirror_Rearview_View_0",
			"translation":[
				0.01223209872841835,
				0.0003946591750718653,
				7.110694423317909e-05
			]
		},
		{
			"children":[
				110,
				111
			],
			"name":"Grp_Mirror_Rearview_Joint_0",
			"rotation":[
				-0.05953498184680939,
				0.9875302314758301,
				-0.008770190179347992,
				0.14547446370124817
			],
			"translation":[
				0.018695712089538574,
				-0.07277965545654297,
				7.102265954017639e-05
			]
		},
		{
			"children":[
				109,
				112
			],
			"name":"Grp_Mirror_Rearview_Mounting_0",
			"translation":[
				0.3156258463859558,
				1.276974081993103,
				0
			]
		},
		{
			"mesh":53,
			"name":"FrontSeat_Backrest_R",
			"translation":[
				-0.12533509731292725,
				0.030261844396591187,
				0
			]
		},
		{
			"mesh":54,
			"name":"FrontSeat_Seating_R"
		},
		{
			"children":[
				114,
				115
			],
			"name":"Grp_Seat_0_0",
			"translation":[
				0.07343578338623047,
				0.4904346168041229,
				0.3316730856895447
			]
		},
		{
			"mesh":55,
			"name":"FrontSeat_Backrest_L",
			"translation":[
				-0.12533509731292725,
				0.030261844396591187,
				0
			]
		},
		{
			"mesh":56,
			"name":"FrontSeat_Seating_L"
		},
		{
			"children":[
				117,
				118
			],
			"name":"Grp_Seat_0_1",
			"translation":[
				0.07343578338623047,
				0.4904346168041229,
				-0.33167290687561035
			]
		},
		{
			"name":"Grp_Seat_1_0",
			"translation":[
				-0.5966542959213257,
				0.5258066058158875,
				0.27500012516975403
			]
		},
		{
			"mesh":57,
			"name":"RearSeat_Backrest",
			"translation":[
				1.8510608673095703,
				-0.1953866183757782,
				0
			]
		},
		{
			"mesh":58,
			"name":"RearSeat_Seating",
			"translation":[
				0.10638737678527832,
				0,
				0
			]
		},
		{
			"children":[
				121,
				122
			],
			"name":"Grp_Seat_1_1",
			"translation":[
				-0.5966542959213257,
				0.5258066058158875,
				0
			]
		},
		{
			"name":"Grp_Seat_1_2",
			"translation":[
				-0.5966542959213257,
				0.5258066058158875,
				-0.2749998867511749
			]
		},
		{
			"mesh":59,
			"name":"Steering_Wheel_Hub",
			"rotation":[
				0,
				0,
				0.18480905890464783,
				0.982774555683136
			]
		},
		{
			"mesh":60,
			"name":"Steering_Wheel_Rim",
			"rotation":[
				0,
				0,
				0.18480905890464783,
				0.982774555683136
			]
		},
		{
			"children":[
				125,
				126
			],
			"name":"Grp_Steering_Wheel_0",
			"rotation":[
				0,
				0,
				-0.18480905890464783,
				0.982774555683136
			],
			"translation":[
				0.36023449897766113,
				0.8884499669075012,
				-0.33167287707328796
			]
		},
		{
			"children":[
				108,
				113,
				116,
				119,
				120,
				123,
				124,
				127
			],
			"name":"Grp_Interior_Dynamic"
		},
		{
			"mesh":61,
			"name":"Steering_Column",
			"translation":[
				0.5079941749572754,
				0.8308413624763489,
				-0.33167287707328796
			]
		},
		{
			"children":[
				129
			],
			"name":"Grp_Interior_Static"
		},
		{
			"children":[
				128,
				130
			],
			"name":"Grp_Interior"
		},
		{
			"children":[
				107,
				131
			],
			"name":"Grp_Root"
		}
	],
	"materials":[
		{
			"doubleSided":true,
			"name":"Tissue_Black",
			"pbrMetallicRoughness":{
				"baseColorFactor":[
					0,
					0,
					0,
					1
				],
				"metallicFactor":0
			}
		},
		{
			"alphaMode":"BLEND",
			"doubleSided":true,
			"name":"Glass",
			"pbrMetallicRoughness":{
				"baseColorFactor":[
					1,
					1,
					1,
					0.03999999910593033
				],
				"metallicFactor":0,
				"roughnessFactor":0
			}
		},
		{
			"doubleSided":true,
			"name":"Paint_Red",
			"pbrMetallicRoughness":{
				"baseColorFactor":[
					0.16462922096252441,
					0.0017444498371332884,
					0,
					1
				],
				"metallicFactor":0,
				"roughnessFactor":0.13636332750320435
			}
		},
		{
			"doubleSided":true,
			"name":"Chrome",
			"pbrMetallicRoughness":{
				"roughnessFactor":0.20000000298023224
			}
		},
		{
			"doubleSided":true,
			"name":"Mirror",
			"pbrMetallicRoughness":{
				"roughnessFactor":0
			}
		},
		{
			"doubleSided":true,
			"name":"License_Plate",
			"pbrMetallicRoughness":{
				"baseColorTexture":{
					"index":0
				},
				"metallicFactor":0.20000000298023224,
				"roughnessFactor":0.5
			}
		},
		{
			"alphaMode":"BLEND",
			"doubleSided":true,
			"emissiveFactor":[
				1,
				0,
				0
			],
			"name":"Light_Brake_Lens_Left",
			"pbrMetallicRoughness":{
				"baseColorFactor":[
					1,
					0.00800000037997961,
					0,
					0.4000000059604645
				],
				"metallicFactor":0,
				"roughnessFactor":0.699999988079071
			}
		},
		{
			"doubleSided":true,
			"name":"Light_Brake_Reflector_Left",
			"pbrMetallicRoughness":{
				"baseColorFactor":[
					1,
					0.006000041961669922,
					0,
					1
				],
				"roughnessFactor":0.20000000298023224
			}
		},
		{
			"alphaMode":"BLEND",
			"doubleSided":true,
			"emissiveFactor":[
				1,
				0.006000041961669922,
				0
			],
			"name":"Light_Tail_Lens_Left",
			"pbrMetallicRoughness":{
				"baseColorFactor":[
					1,
					0.006000041961669922,
					0,
					0.4000000059604645
				],
				"metallicFactor":0,
				"roughnessFactor":0.699999988079071
			}
		},
		{
			"alphaMode":"BLEND",
			"doubleSided":true,
			"emissiveFactor":[
				1,
				0.10199999809265137,
				0
			],
			"name":"Light_Indicator_Left_Lens",
			"pbrMetallicRoughness":{
				"baseColorFactor":[
					1,
					0.10199999809265137,
					0,
					0.4000000059604645
				],
				"metallicFactor":0,
				"roughnessFactor":0.699999988079071
			}
		},
		{
			"doubleSided":true,
			"emissiveFactor":[
				1,
				0.10199999809265137,
				0
			],
			"name":"Light_Indicator_Reflector_Left",
			"pbrMetallicRoughness":{
				"baseColorFactor":[
					1,
					0.10199999809265137,
					0,
					1
				],
				"roughnessFactor":0.20000000298023224
			}
		},
		{
			"alphaMode":"BLEND",
			"doubleSided":true,
			"emissiveFactor":[
				1,
				0.10000000149011612,
				0
			],
			"name":"Light_Indicator_Right_Lens",
			"pbrMetallicRoughness":{
				"baseColorFactor":[
					1,
					0.10000000149011612,
					0,
					0.4000000059604645
				],
				"metallicFactor":0,
				"roughnessFactor":0.699999988079071
			}
		},
		{
			"doubleSided":true,
			"emissiveFactor":[
				1,
				0.10199999809265137,
				0
			],
			"name":"Light_Indicator_Reflector_Right",
			"pbrMetallicRoughness":{
				"baseColorFactor":[
					1,
					0.10199999809265137,
					0,
					1
				],
				"roughnessFactor":0.20000000298023224
			}
		},
		{
			"alphaMode":"BLEND",
			"doubleSided":true,
			"emissiveFactor":[
				1,
				1,
				1
			],
			"name":"Light_Head_Lens_Left",
			"pbrMetallicRoughness":{
				"baseColorFactor":[
					1,
					1,
					1,
					0.4000000059604645
				],
				"roughnessFactor":0.20000000298023224
			}
		},
		{
			"doubleSided":true,
			"emissiveFactor":[
				1,
				1,
				1
			],
			"name":"Light_Head_Reflector_Left",
			"pbrMetallicRoughness":{
				"roughnessFactor":0.20000000298023224
			}
		},
		{
			"alphaMode":"BLEND",
			"doubleSided":true,
			"emissiveFactor":[
				1,
				1,
				1
			],
			"name":"Light_Head_Lens_Right",
			"pbrMetallicRoughness":{
				"baseColorFactor":[
					1,
					1,
					1,
					0.4000000059604645
				],
				"roughnessFactor":0.20000000298023224
			}
		},
		{
			"doubleSided":true,
			"emissiveFactor":[
				1,
				1,
				1
			],
			"name":"Light_Head_Reflector_Right",
			"pbrMetallicRoughness":{
				"roughnessFactor":0.20000000298023224
			}
		},
		{
			"doubleSided":true,
			"name":"Light_Tail_Reflector_Left",
			"pbrMetallicRoughness":{
				"baseColorFactor":[
					1,
					0.006000041961669922,
					0,
					1
				],
				"roughnessFactor":0.20000000298023224
			}
		},
		{
			"alphaMode":"BLEND",
			"doubleSided":true,
			"emissiveFactor":[
				1,
				0.006000041961669922,
				0
			],
			"name":"Light_Tail_Lens_Right",
			"pbrMetallicRoughness":{
				"baseColorFactor":[
					1,
					0.006000041961669922,
					0,
					0.4000000059604645
				],
				"metallicFactor":0,
				"roughnessFactor":0.699999988079071
			}
		},
		{
			"doubleSided":true,
			"name":"Light_Tail_Reflector_Right",
			"pbrMetallicRoughness":{
				"baseColorFactor":[
					1,
					0.006000041961669922,
					0,
					1
				],
				"roughnessFactor":0.20000000298023224
			}
		},
		{
			"doubleSided":true,
			"name":"Metal_Gray",
			"pbrMetallicRoughness":{
				"baseColorFactor":[
					0.5,
					0.5,
					0.5,
					1
				],
				"roughnessFactor":0.75
			}
		},
		{
			"doubleSided":true,
			"name":"Metal_DarkGray",
			"pbrMetallicRoughness":{
				"baseColorFactor":[
					0.11933769285678864,
					0.11933769285678864,
					0.11933769285678864,
					1
				],
				"roughnessFactor":0.75
			}
		},
		{
			"doubleSided":true,
			"name":"Rubber_Black",
			"pbrMetallicRoughness":{
				"baseColorFactor":[
					0,
					0,
					0,
					1
				],
				"metallicFactor":0
			}
		},
		{
			"doubleSided":true,
			"name":"Tissue_Sand",
			"pbrMetallicRoughness":{
				"baseColorFactor":[
					0.13084962964057922,
					0.09755708277225494,
					0.04744274914264679,
					1
				],
				"metallicFactor":0
			}
		},
		{
			"doubleSided":true,
			"name":"Wood_Dark",
			"pbrMetallicRoughness":{
				"baseColorFactor":[
					0.01770806312561035,
					0.00018726567213889211,
					0.0024490871001034975,
					1
				],
				"metallicFactor":0
			}
		}
	],
	"meshes":[
		{
			"name":"Roof",
			"primitives":[
				{
					"attributes":{
						"POSITION":0,
						"NORMAL":1,
						"TEXCOORD_0":2
					},
					"indices":3,
					"material":0
				}
			]
		},
		{
			"name":"Window_R",
			"primitives":[
				{
					"attributes":{
						"POSITION":4,
						"NORMAL":5
					},
					"indices":6,
					"material":1
				}
			]
		},
		{
			"name":"Door_FL",
			"primitives":[
				{
					"attributes":{
						"POSITION":7,
						"NORMAL":8,
						"TEXCOORD_0":9
					},
					"indices":10,
					"material":2
				}
			]
		},
		{
			"name":"Side_Mirror_L",
			"primitives":[
				{
					"attributes":{
						"POSITION":11,
						"NORMAL":12,
						"TEXCOORD_0":13
					},
					"indices":14,
					"material":3
				},
				{
					"attributes":{
						"POSITION":15,
						"NORMAL":16,
						"TEXCOORD_0":17
					},
					"indices":18,
					"material":4
				}
			]
		},
		{
			"name":"Side_Mirror_Mount_L",
			"primitives":[
				{
					"attributes":{
						"POSITION":19,
						"NORMAL":20,
						"TEXCOORD_0":21
					},
					"indices":22,
					"material":3
				}
			]
		},
		{
			"name":"Window_FL",
			"primitives":[
				{
					"attributes":{
						"POSITION":23,
						"NORMAL":24
					},
					"indices":25,
					"material":1
				}
			]
		},
		{
			"name":"Trunk_Lid",
			"primitives":[
				{
					"attributes":{
						"POSITION":26,
						"NORMAL":27,
						"TEXCOORD_0":28
					},
					"indices":29,
					"material":2
				}
			]
		},
		{
			"name":"Door_FR",
			"primitives":[
				{
					"attributes":{
						"POSITION":30,
						"NORMAL":31,
						"TEXCOORD_0":32
					},
					"indices":33,
					"material":2
				}
			]
		},
		{
			"name":"Side_Mirror_R",
			"primitives":[
				{
					"attributes":{
						"POSITION":34,
						"NORMAL":35,
						"TEXCOORD_0":36
					},
					"indices":37,
					"material":3
				},
				{
					"attributes":{
						"POSITION":38,
						"NORMAL":39,
						"TEXCOORD_0":40
					},
					"indices":41,
					"material":4
				}
			]
		},
		{
			"name":"Side_Mirror_Mount_R",
			"primitives":[
				{
					"attributes":{
						"POSITION":42,
						"NORMAL":43,
						"TEXCOORD_0":44
					},
					"indices":45,
					"material":3
				}
			]
		},
		{
			"name":"Window_FR",
			"primitives":[
				{
					"attributes":{
						"POSITION":46,
						"NORMAL":47,
						"TEXCOORD_0":48
					},
					"indices":49,
					"material":1
				}
			]
		},
		{
			"name":"License_Plate_F",
			"primitives":[
				{
					"attributes":{
						"POSITION":50,
						"NORMAL":51,
						"TEXCOORD_0":52
					},
					"indices":53,
					"material":5
				}
			]
		},
		{
			"name":"License_Plate_R",
			"primitives":[
				{
					"attributes":{
						"POSITION":54,
						"NORMAL":55,
						"TEXCOORD_0":56
					},
					"indices":53,
					"material":5
				}
			]
		},
		{
			"name":"Light_Brake_Lens_BL",
			"primitives":[
				{
					"attributes":{
						"POSITION":57,
						"NORMAL":58
					},
					"indices":59,
					"material":6
				}
			]
		},
		{
			"name":"Light_Brake_Reflector_BL",
			"primitives":[
				{
					"attributes":{
						"POSITION":60,
						"NORMAL":61
					},
					"indices":62,
					"material":7
				}
			]
		},
		{
			"name":"Light_Brake_Lens_BR",
			"primitives":[
				{
					"attributes":{
						"POSITION":63,
						"NORMAL":64
					},
					"indices":65,
					"material":8
				}
			]
		},
		{
			"name":"Light_Brake_Reflector_BR",
			"primitives":[
				{
					"attributes":{
						"POSITION":66,
						"NORMAL":67
					},
					"indices":68,
					"material":7
				}
			]
		},
		{
			"name":"Indicator_Lens_FL",
			"primitives":[
				{
					"attributes":{
						"POSITION":69,
						"NORMAL":70
					},
					"indices":71,
					"material":9
				}
			]
		},
		{
			"name":"Indicator_Reflector_FL",
			"primitives":[
				{
					"attributes":{
						"POSITION":72,
						"NORMAL":73
					},
					"indices":74,
					"material":10
				}
			]
		},
		{
			"name":"Indicator_Lens_BL",
			"primitives":[
				{
					"attributes":{
						"POSITION":75,
						"NORMAL":76
					},
					"indices":77,
					"material":9
				}
			]
		},
		{
			"name":"Indicator_Reflector_BL",
			"primitives":[
				{
					"attributes":{
						"POSITION":78,
						"NORMAL":79
					},
					"indices":80,
					"material":10
				}
			]
		},
		{
			"name":"Indicator_Lens_FR",
			"primitives":[
				{
					"attributes":{
						"POSITION":81,
						"NORMAL":82
					},
					"indices":83,
					"material":11
				}
			]
		},
		{
			"name":"Indicator_Reflector_FR",
			"primitives":[
				{
					"attributes":{
						"POSITION":84,
						"NORMAL":85
					},
					"indices":86,
					"material":12
				}
			]
		},
		{
			"name":"Indicator_Lens_BR",
			"primitives":[
				{
					"attributes":{
						"POSITION":87,
						"NORMAL":88
					},
					"indices":89,
					"material":11
				}
			]
		},
		{
			"name":"Indicator_Reflector_BR",
			"primitives":[
				{
					"attributes":{
						"POSITION":90,
						"NORMAL":91
					},
					"indices":92,
					"material":12
				}
			]
		},
		{
			"name":"Light_Low_Beam_Lens_FL",
			"primitives":[
				{
					"attributes":{
						"POSITION":93,
						"NORMAL":94,
						"TEXCOORD_0":95
					},
					"indices":96,
					"material":13
				}
			]
		},
		{
			"name":"Light_Low_Beam_Reflector_FL",
			"primitives":[
				{
					"attributes":{
						"POSITION":97,
						"NORMAL":98,
						"TEXCOORD_0":99
					},
					"indices":100,
					"material":14
				}
			]
		},
		{
			"name":"Light_Low_Beam_Lens_FR",
			"primitives":[
				{
					"attributes":{
						"POSITION":101,
						"NORMAL":102,
						"TEXCOORD_0":103
					},
					"indices":104,
					"material":15
				}
			]
		},
		{
			"name":"Light_Low_Beam_Reflector_FR",
			"primitives":[
				{
					"attributes":{
						"POSITION":105,
						"NORMAL":106,
						"TEXCOORD_0":107
					},
					"indices":108,
					"material":16
				}
			]
		},
		{
			"name":"Light_Tail_Lens_BL",
			"primitives":[
				{
					"attributes":{
						"POSITION":109,
						"NORMAL":110
					},
					"indices":111,
					"material":8
				}
			]
		},
		{
			"name":"Light_Tail_Reflector_BL",
			"primitives":[
				{
					"attributes":{
						"POSITION":112,
						"NORMAL":113
					},
					"indices":114,
					"material":17
				}
			]
		},
		{
			"name":"Light_Tail_Lens_BR",
			"primitives":[
				{
					"attributes":{
						"POSITION":115,
						"NORMAL":116
					},
					"indices":117,
					"material":18
				}
			]
		},
		{
			"name":"Light_Tail_Reflector_BR",
			"primitives":[
				{
					"attributes":{
						"POSITION":118,
						"NORMAL":119
					},
					"indices":120,
					"material":19
				}
			]
		},
		{
			"name":"Brake_FR",
			"primitives":[
				{
					"attributes":{
						"POSITION":121,
						"NORMAL":122,
						"TEXCOORD_0":123
					},
					"indices":124,
					"material":20
				},
				{
					"attributes":{
						"POSITION":125,
						"NORMAL":126,
						"TEXCOORD_0":127
					},
					"indices":128,
					"material":21
				}
			]
		},
		{
			"name":"BrakeRotor_FR",
			"primitives":[
				{
					"attributes":{
						"POSITION":129,
						"NORMAL":130,
						"TEXCOORD_0":131
					},
					"indices":132,
					"material":20
				}
			]
		},
		{
			"name":"Rim_FR",
			"primitives":[
				{
					"attributes":{
						"POSITION":133,
						"NORMAL":134,
						"TEXCOORD_0":135
					},
					"indices":136,
					"material":3
				}
			]
		},
		{
			"name":"Tire_FR",
			"primitives":[
				{
					"attributes":{
						"POSITION":137,
						"NORMAL":138,
						"TEXCOORD_0":139
					},
					"indices":140,
					"material":22
				}
			]
		},
		{
			"name":"Brake_FL",
			"primitives":[
				{
					"attributes":{
						"POSITION":141,
						"NORMAL":142,
						"TEXCOORD_0":143
					},
					"indices":144,
					"material":20
				},
				{
					"attributes":{
						"POSITION":145,
						"NORMAL":146,
						"TEXCOORD_0":147
					},
					"indices":148,
					"material":21
				}
			]
		},
		{
			"name":"BrakeRotor_FL",
			"primitives":[
				{
					"attributes":{
						"POSITION":149,
						"NORMAL":150,
						"TEXCOORD_0":151
					},
					"indices":152,
					"material":20
				}
			]
		},
		{
			"name":"Rim_FL",
			"primitives":[
				{
					"attributes":{
						"POSITION":153,
						"NORMAL":154,
						"TEXCOORD_0":155
					},
					"indices":156,
					"material":3
				}
			]
		},
		{
			"name":"Tire_FL",
			"primitives":[
				{
					"attributes":{
						"POSITION":157,
						"NORMAL":158,
						"TEXCOORD_0":159
					},
					"indices":160,
					"material":22
				}
			]
		},
		{
			"name":"Brake_BR",
			"primitives":[
				{
					"attributes":{
						"POSITION":161,
						"NORMAL":162,
						"TEXCOORD_0":163
					},
					"indices":164,
					"material":20
				},
				{
					"attributes":{
						"POSITION":165,
						"NORMAL":166,
						"TEXCOORD_0":167
					},
					"indices":168,
					"material":21
				}
			]
		},
		{
			"name":"BrakeRotor_BR",
			"primitives":[
				{
					"attributes":{
						"POSITION":169,
						"NORMAL":170,
						"TEXCOORD_0":171
					},
					"indices":132,
					"material":20
				}
			]
		},
		{
			"name":"Rim_BR",
			"primitives":[
				{
					"attributes":{
						"POSITION":172,
						"NORMAL":173,
						"TEXCOORD_0":174
					},
					"indices":136,
					"material":3
				}
			]
		},
		{
			"name":"Tire_BR",
			"primitives":[
				{
					"attributes":{
						"POSITION":175,
						"NORMAL":176,
						"TEXCOORD_0":177
					},
					"indices":140,
					"material":22
				}
			]
		},
		{
			"name":"Brake_BL",
			"primitives":[
				{
					"attributes":{
						"POSITION":178,
						"NORMAL":179,
						"TEXCOORD_0":180
					},
					"indices":181,
					"material":20
				},
				{
					"attributes":{
						"POSITION":182,
						"NORMAL":183,
						"TEXCOORD_0":184
					},
					"indices":185,
					"material":21
				}
			]
		},
		{
			"name":"BrakeRotor_BL",
			"primitives":[
				{
					"attributes":{
						"POSITION":186,
						"NORMAL":187,
						"TEXCOORD_0":188
					},
					"indices":152,
					"material":20
				}
			]
		},
		{
			"name":"Rim_BL",
			"primitives":[
				{
					"attributes":{
						"POSITION":189,
						"NORMAL":190,
						"TEXCOORD_0":191
					},
					"indices":156,
					"material":3
				}
			]
		},
		{
			"name":"Tire_BL",
			"primitives":[
				{
					"attributes":{
						"POSITION":192,
						"NORMAL":193,
						"TEXCOORD_0":194
					},
					"indices":195,
					"material":22
				}
			]
		},
		{
			"name":"Body",
			"primitives":[
				{
					"attributes":{
						"POSITION":196,
						"NORMAL":197,
						"TEXCOORD_0":198
					},
					"indices":199,
					"material":2
				}
			]
		},
		{
			"name":"Window_F",
			"primitives":[
				{
					"attributes":{
						"POSITION":200,
						"NORMAL":201,
						"TEXCOORD_0":202
					},
					"indices":203,
					"material":1
				}
			]
		},
		{
			"name":"Center_Mirror_Mount",
			"primitives":[
				{
					"attributes":{
						"POSITION":204,
						"NORMAL":205,
						"TEXCOORD_0":206
					},
					"indices":207,
					"material":3
				}
			]
		},
		{
			"name":"Center_Mirror",
			"primitives":[
				{
					"attributes":{
						"POSITION":208,
						"NORMAL":209,
						"TEXCOORD_0":210
					},
					"indices":211,
					"material":3
				},
				{
					"attributes":{
						"POSITION":212,
						"NORMAL":213,
						"TEXCOORD_0":214
					},
					"indices":215,
					"material":4
				}
			]
		},
		{
			"name":"FrontSeat_Backrest_R",
			"primitives":[
				{
					"attributes":{
						"POSITION":216,
						"NORMAL":217,
						"TEXCOORD_0":218
					},
					"indices":219,
					"material":23
				}
			]
		},
		{
			"name":"FrontSeat_Seating_R",
			"primitives":[
				{
					"attributes":{
						"POSITION":220,
						"NORMAL":221,
						"TEXCOORD_0":222
					},
					"indices":223,
					"material":23
				}
			]
		},
		{
			"name":"FrontSeat_Backrest_L",
			"primitives":[
				{
					"attributes":{
						"POSITION":224,
						"NORMAL":225,
						"TEXCOORD_0":226
					},
					"indices":227,
					"material":23
				}
			]
		},
		{
			"name":"FrontSeat_Seating_L",
			"primitives":[
				{
					"attributes":{
						"POSITION":228,
						"NORMAL":229,
						"TEXCOORD_0":230
					},
					"indices":231,
					"material":23
				}
			]
		},
		{
			"name":"RearSeat_Backrest",
			"primitives":[
				{
					"attributes":{
						"POSITION":232,
						"NORMAL":233,
						"TEXCOORD_0":234
					},
					"indices":235,
					"material":23
				}
			]
		},
		{
			"name":"RearSeat_Seating",
			"primitives":[
				{
					"attributes":{
						"POSITION":236,
						"NORMAL":237,
						"TEXCOORD_0":238
					},
					"indices":239,
					"material":23
				}
			]
		},
		{
			"name":"Steering_Wheel_Hub",
			"primitives":[
				{
					"attributes":{
						"POSITION":240,
						"NORMAL":241,
						"TEXCOORD_0":242
					},
					"indices":243,
					"material":3
				}
			]
		},
		{
			"name":"Steering_Wheel_Rim",
			"primitives":[
				{
					"attributes":{
						"POSITION":244,
						"NORMAL":245,
						"TEXCOORD_0":246
					},
					"indices":247,
					"material":24
				}
			]
		},
		{
			"name":"Steering_Axle",
			"primitives":[
				{
					"attributes":{
						"POSITION":248,
						"NORMAL":249,
						"TEXCOORD_0":250
					},
					"indices":251,
					"material":2
				}
			]
		}
	],
	"textures":[
		{
			"sampler":0,
			"source":0
		}
	],
	"images":[
		{
			"mimeType":"image/png",
			"name":"License_Plate",
			"uri":"License_Plate.png"
		}
	],
	"accessors":[
		{
			"bufferView":0,
			"componentType":5126,
			"count":1499,
			"max":[
				-0.937881588935852,
				0.9659544229507446,
				0.6986233592033386
			],
			"min":[
				-2.318734645843506,
				0.5740458965301514,
				-0.6986233592033386
			],
			"type":"VEC3"
		},
		{
			"bufferView":1,
			"componentType":5126,
			"count":1499,
			"type":"VEC3"
		},
		{
			"bufferView":2,
			"componentType":5126,
			"count":1499,
			"type":"VEC2"
		},
		{
			"bufferView":3,
			"componentType":5123,
			"count":6450,
			"type":"SCALAR"
		},
		{
			"bufferView":4,
			"componentType":5126,
			"count":46,
			"max":[
				-1.887231707572937,
				0.8713778257369995,
				0.5858917236328125
			],
			"min":[
				-2.276339530944824,
				0.632270336151123,
				-0.5858911275863647
			],
			"type":"VEC3"
		},
		{
			"bufferView":5,
			"componentType":5126,
			"count":46,
			"type":"VEC3"
		},
		{
			"bufferView":6,
			"componentType":5123,
			"count":138,
			"type":"SCALAR"
		},
		{
			"bufferView":7,
			"componentType":5126,
			"count":360,
			"max":[
				0.011235539801418781,
				0.33023691177368164,
				0.14408494532108307
			],
			"min":[
				-1.0010875463485718,
				-0.27025747299194336,
				-7.432734128087759e-05
			],
			"type":"VEC3"
		},
		{
			"bufferView":8,
			"componentType":5126,
			"count":360,
			"type":"VEC3"
		},
		{
			"bufferView":9,
			"componentType":5126,
			"count":360,
			"type":"VEC2"
		},
		{
			"bufferView":10,
			"componentType":5123,
			"count":1500,
			"type":"SCALAR"
		},
		{
			"bufferView":11,
			"componentType":5126,
			"count":387,
			"max":[
				0.03387190401554108,
				0.043747302144765854,
				0.04374971613287926
			],
			"min":[
				-0.007428706623613834,
				-0.04373243451118469,
				-0.04373002052307129
			],
			"type":"VEC3"
		},
		{
			"bufferView":12,
			"componentType":5126,
			"count":387,
			"type":"VEC3"
		},
		{
			"bufferView":13,
			"componentType":5126,
			"count":387,
			"type":"VEC2"
		},
		{
			"bufferView":14,
			"componentType":5123,
			"count":1770,
			"type":"SCALAR"
		},
		{
			"bufferView":15,
			"componentType":5126,
			"count":20,
			"max":[
				0.03203129395842552,
				0.038498833775520325,
				0.038501255214214325
			],
			"min":[
				0.03203125670552254,
				-0.038483962416648865,
				-0.038481540977954865
			],
			"type":"VEC3"
		},
		{
			"bufferView":16,
			"componentType":5126,
			"count":20,
			"type":"VEC3"
		},
		{
			"bufferView":17,
			"componentType":5126,
			"count":20,
			"type":"VEC2"
		},
		{
			"bufferView":18,
			"componentType":5123,
			"count":54,
			"type":"SCALAR"
		},
		{
			"bufferView":19,
			"componentType":5126,
			"count":303,
			"max":[
				0.045220959931612015,
				0.07387641072273254,
				0.00958794541656971
			],
			"min":[
				-0.03658146411180496,
				-0.012683038599789143,
				-0.092189721763134
			],
			"type":"VEC3"
		},
		{
			"bufferView":20,
			"componentType":5126,
			"count":303,
			"type":"VEC3"
		},
		{
			"bufferView":21,
			"componentType":5126,
			"count":303,
			"type":"VEC2"
		},
		{
			"bufferView":22,
			"componentType":5123,
			"count":1470,
			"type":"SCALAR"
		},
		{
			"bufferView":23,
			"componentType":5126,
			"count":30,
			"max":[
				-0.1510896533727646,
				0.6301144361495972,
				0.2132261097431183
			],
			"min":[
				-1.0165842771530151,
				0.3307332992553711,
				0.11041045188903809
			],
			"type":"VEC3"
		},
		{
			"bufferView":24,
			"componentType":5126,
			"count":30,
			"type":"VEC3"
		},
		{
			"bufferView":25,
			"componentType":5123,
			"count":84,
			"type":"SCALAR"
		},
		{
			"bufferView":26,
			"componentType":5126,
			"count":806,
			"max":[
				0.008510829880833626,
				0.5037348866462708,
				0.00011217594874324277
			],
			"min":[
				-0.5514394640922546,
				-0.5037348866462708,
				-0.5017445087432861
			],
			"type":"VEC3"
		},
		{
			"bufferView":27,
			"componentType":5126,
			"count":806,
			"type":"VEC3"
		},
		{
			"bufferView":28,
			"componentType":5126,
			"count":806,
			"type":"VEC2"
		},
		{
			"bufferView":29,
			"componentType":5123,
			"count":3948,
			"type":"SCALAR"
		},
		{
			"bufferView":30,
			"componentType":5126,
			"count":360,
			"max":[
				0.01123553141951561,
				0.33023691177368164,
				7.468330295523629e-05
			],
			"min":[
				-1.0010875463485718,
				-0.27025747299194336,
				-0.14408454298973083
			],
			"type":"VEC3"
		},
		{
			"bufferView":31,
			"componentType":5126,
			"count":360,
			"type":"VEC3"
		},
		{
			"bufferView":32,
			"componentType":5126,
			"count":360,
			"type":"VEC2"
		},
		{
			"bufferView":33,
			"componentType":5123,
			"count":1500,
			"type":"SCALAR"
		},
		{
			"bufferView":34,
			"componentType":5126,
			"count":387,
			"max":[
				0.03459729999303818,
				0.043747302144765854,
				0.04427581652998924
			],
			"min":[
				-0.007557222153991461,
				-0.04373243451118469,
				-0.043190598487854004
			],
			"type":"VEC3"
		},
		{
			"bufferView":35,
			"componentType":5126,
			"count":387,
			"type":"VEC3"
		},
		{
			"bufferView":36,
			"componentType":5126,
			"count":387,
			"type":"VEC2"
		},
		{
			"bufferView":37,
			"componentType":5123,
			"count":1770,
			"type":"SCALAR"
		},
		{
			"bufferView":38,
			"componentType":5126,
			"count":20,
			"max":[
				0.032698340713977814,
				0.038498833775520325,
				0.03903469443321228
			],
			"min":[
				0.03135479986667633,
				-0.038483962416648865,
				-0.03793637827038765
			],
			"type":"VEC3"
		},
		{
			"bufferView":39,
			"componentType":5126,
			"count":20,
			"type":"VEC3"
		},
		{
			"bufferView":40,
			"componentType":5126,
			"count":20,
			"type":"VEC2"
		},
		{
			"bufferView":41,
			"componentType":5123,
			"count":54,
			"type":"SCALAR"
		},
		{
			"bufferView":42,
			"componentType":5126,
			"count":303,
			"max":[
				0.045220959931612015,
				0.07387641072273254,
				0.092189721763134
			],
			"min":[
				-0.03658146411180496,
				-0.012683038599789143,
				-0.00958794541656971
			],
			"type":"VEC3"
		},
		{
			"bufferView":43,
			"componentType":5126,
			"count":303,
			"type":"VEC3"
		},
		{
			"bufferView":44,
			"componentType":5126,
			"count":303,
			"type":"VEC2"
		},
		{
			"bufferView":45,
			"componentType":5123,
			"count":1470,
			"type":"SCALAR"
		},
		{
			"bufferView":46,
			"componentType":5126,
			"count":30,
			"max":[
				-0.15108975768089294,
				0.6301144361495972,
				-0.11040997505187988
			],
			"min":[
				-1.0165842771530151,
				0.3307332992553711,
				-0.21322570741176605
			],
			"type":"VEC3"
		},
		{
			"bufferView":47,
			"componentType":5126,
			"count":30,
			"type":"VEC3"
		},
		{
			"bufferView":48,
			"componentType":5126,
			"count":30,
			"type":"VEC2"
		},
		{
			"bufferView":49,
			"componentType":5123,
			"count":84,
			"type":"SCALAR"
		},
		{
			"bufferView":50,
			"componentType":5126,
			"count":24,
			"max":[
				0.005000039003789425,
				0.054999999701976776,
				0.25999999046325684
			],
			"min":[
				-0.005000039003789425,
				-0.054999999701976776,
				-0.25999999046325684
			],
			"type":"VEC3"
		},
		{
			"bufferView":51,
			"componentType":5126,
			"count":24,
			"type":"VEC3"
		},
		{
			"bufferView":52,
			"componentType":5126,
			"count":24,
			"type":"VEC2"
		},
		{
			"bufferView":53,
			"componentType":5123,
			"count":36,
			"type":"SCALAR"
		},
		{
			"bufferView":54,
			"componentType":5126,
			"count":24,
			"max":[
				0.005000084638595581,
				0.054999999701976776,
				0.25999999046325684
			],
			"min":[
				-0.005000084638595581,
				-0.054999999701976776,
				-0.25999999046325684
			],
			"type":"VEC3"
		},
		{
			"bufferView":55,
			"componentType":5126,
			"count":24,
			"type":"VEC3"
		},
		{
			"bufferView":56,
			"componentType":5126,
			"count":24,
			"type":"VEC2"
		},
		{
			"bufferView":57,
			"componentType":5126,
			"count":200,
			"max":[
				0.03846587613224983,
				0.026059256866574287,
				0.026059255003929138
			],
			"min":[
				0.020919742062687874,
				-0.026059260591864586,
				-0.026059264317154884
			],
			"type":"VEC3"
		},
		{
			"bufferView":58,
			"componentType":5126,
			"count":200,
			"type":"VEC3"
		},
		{
			"bufferView":59,
			"componentType":5123,
			"count":828,
			"type":"SCALAR"
		},
		{
			"bufferView":60,
			"componentType":5126,
			"count":320,
			"max":[
				0.024408215656876564,
				0.02968626283109188,
				0.02968626469373703
			],
			"min":[
				-4.9523459892952815e-05,
				-0.029686270281672478,
				-0.029686274006962776
			],
			"type":"VEC3"
		},
		{
			"bufferView":61,
			"componentType":5126,
			"count":320,
			"type":"VEC3"
		},
		{
			"bufferView":62,
			"componentType":5123,
			"count":1014,
			"type":"SCALAR"
		},
		{
			"bufferView":63,
			"componentType":5126,
			"count":200,
			"max":[
				0.03846587613224983,
				0.026059256866574287,
				0.026059264317154884
			],
			"min":[
				0.020919742062687874,
				-0.026059260591864586,
				-0.026059255003929138
			],
			"type":"VEC3"
		},
		{
			"bufferView":64,
			"componentType":5126,
			"count":200,
			"type":"VEC3"
		},
		{
			"bufferView":65,
			"componentType":5123,
			"count":828,
			"type":"SCALAR"
		},
		{
			"bufferView":66,
			"componentType":5126,
			"count":320,
			"max":[
				0.024408215656876564,
				0.02968626283109188,
				0.029686274006962776
			],
			"min":[
				-4.9523459892952815e-05,
				-0.029686270281672478,
				-0.02968626469373703
			],
			"type":"VEC3"
		},
		{
			"bufferView":67,
			"componentType":5126,
			"count":320,
			"type":"VEC3"
		},
		{
			"bufferView":68,
			"componentType":5123,
			"count":1014,
			"type":"SCALAR"
		},
		{
			"bufferView":69,
			"componentType":5126,
			"count":200,
			"max":[
				0.03851606696844101,
				0.026059256866574287,
				0.026059255003929138
			],
			"min":[
				0.020969931036233902,
				-0.026059260591864586,
				-0.026059266179800034
			],
			"type":"VEC3"
		},
		{
			"bufferView":70,
			"componentType":5126,
			"count":200,
			"type":"VEC3"
		},
		{
			"bufferView":71,
			"componentType":5123,
			"count":828,
			"type":"SCALAR"
		},
		{
			"bufferView":72,
			"componentType":5126,
			"count":320,
			"max":[
				0.024458400905132294,
				0.02968626283109188,
				0.02968626469373703
			],
			"min":[
				6.636466878262581e-07,
				-0.029686270281672478,
				-0.029686274006962776
			],
			"type":"VEC3"
		},
		{
			"bufferView":73,
			"componentType":5126,
			"count":320,
			"type":"VEC3"
		},
		{
			"bufferView":74,
			"componentType":5123,
			"count":1014,
			"type":"SCALAR"
		},
		{
			"bufferView":75,
			"componentType":5126,
			"count":200,
			"max":[
				0.03846587613224983,
				0.026059256866574287,
				0.026059255003929138
			],
			"min":[
				0.020919742062687874,
				-0.026059260591864586,
				-0.026059264317154884
			],
			"type":"VEC3"
		},
		{
			"bufferView":76,
			"componentType":5126,
			"count":200,
			"type":"VEC3"
		},
		{
			"bufferView":77,
			"componentType":5123,
			"count":828,
			"type":"SCALAR"
		},
		{
			"bufferView":78,
			"componentType":5126,
			"count":320,
			"max":[
				0.024408215656876564,
				0.02968626283109188,
				0.02968626469373703
			],
			"min":[
				-4.9523459892952815e-05,
				-0.029686270281672478,
				-0.029686274006962776
			],
			"type":"VEC3"
		},
		{
			"bufferView":79,
			"componentType":5126,
			"count":320,
			"type":"VEC3"
		},
		{
			"bufferView":80,
			"componentType":5123,
			"count":1014,
			"type":"SCALAR"
		},
		{
			"bufferView":81,
			"componentType":5126,
			"count":200,
			"max":[
				0.03851606696844101,
				0.026059256866574287,
				0.026059266179800034
			],
			"min":[
				0.020969931036233902,
				-0.026059260591864586,
				-0.026059255003929138
			],
			"type":"VEC3"
		},
		{
			"bufferView":82,
			"componentType":5126,
			"count":200,
			"type":"VEC3"
		},
		{
			"bufferView":83,
			"componentType":5123,
			"count":828,
			"type":"SCALAR"
		},
		{
			"bufferView":84,
			"componentType":5126,
			"count":320,
			"max":[
				0.024458400905132294,
				0.02968626283109188,
				0.029686274006962776
			],
			"min":[
				6.636466878262581e-07,
				-0.029686270281672478,
				-0.02968626469373703
			],
			"type":"VEC3"
		},
		{
			"bufferView":85,
			"componentType":5126,
			"count":320,
			"type":"VEC3"
		},
		{
			"bufferView":86,
			"componentType":5123,
			"count":1014,
			"type":"SCALAR"
		},
		{
			"bufferView":87,
			"componentType":5126,
			"count":200,
			"max":[
				0.03846587613224983,
				0.026059256866574287,
				0.026059264317154884
			],
			"min":[
				0.020919742062687874,
				-0.026059260591864586,
				-0.026059255003929138
			],
			"type":"VEC3"
		},
		{
			"bufferView":88,
			"componentType":5126,
			"count":200,
			"type":"VEC3"
		},
		{
			"bufferView":89,
			"componentType":5123,
			"count":828,
			"type":"SCALAR"
		},
		{
			"bufferView":90,
			"componentType":5126,
			"count":320,
			"max":[
				0.024408215656876564,
				0.02968626283109188,
				0.029686274006962776
			],
			"min":[
				-4.9523459892952815e-05,
				-0.029686270281672478,
				-0.02968626469373703
			],
			"type":"VEC3"
		},
		{
			"bufferView":91,
			"componentType":5126,
			"count":320,
			"type":"VEC3"
		},
		{
			"bufferView":92,
			"componentType":5123,
			"count":1014,
			"type":"SCALAR"
		},
		{
			"bufferView":93,
			"componentType":5126,
			"count":448,
			"max":[
				0.10071336477994919,
				0.08700000494718552,
				0.08700000494718552
			],
			"min":[
				0.0701570138335228,
				-0.08700000494718552,
				-0.0870000347495079
			],
			"type":"VEC3"
		},
		{
			"bufferView":94,
			"componentType":5126,
			"count":448,
			"type":"VEC3"
		},
		{
			"bufferView":95,
			"componentType":5126,
			"count":448,
			"type":"VEC2"
		},
		{
			"bufferView":96,
			"componentType":5123,
			"count":2100,
			"type":"SCALAR"
		},
		{
			"bufferView":97,
			"componentType":5126,
			"count":610,
			"max":[
				0.07784063369035721,
				0.0937214195728302,
				0.0937214195728302
			],
			"min":[
				-0.0005249496316537261,
				-0.0937214195728302,
				-0.09372144937515259
			],
			"type":"VEC3"
		},
		{
			"bufferView":98,
			"componentType":5126,
			"count":610,
			"type":"VEC3"
		},
		{
			"bufferView":99,
			"componentType":5126,
			"count":610,
			"type":"VEC2"
		},
		{
			"bufferView":100,
			"componentType":5123,
			"count":1908,
			"type":"SCALAR"
		},
		{
			"bufferView":101,
			"componentType":5126,
			"count":450,
			"max":[
				0.10071306675672531,
				0.08700000494718552,
				0.08700000494718552
			],
			"min":[
				0.07015671581029892,
				-0.08700000494718552,
				-0.0870000347495079
			],
			"type":"VEC3"
		},
		{
			"bufferView":102,
			"componentType":5126,
			"count":450,
			"type":"VEC3"
		},
		{
			"bufferView":103,
			"componentType":5126,
			"count":450,
			"type":"VEC2"
		},
		{
			"bufferView":104,
			"componentType":5123,
			"count":2100,
			"type":"SCALAR"
		},
		{
			"bufferView":105,
			"componentType":5126,
			"count":610,
			"max":[
				0.07784033566713333,
				0.0937214195728302,
				0.0937214195728302
			],
			"min":[
				-0.000525247654877603,
				-0.0937214195728302,
				-0.09372144937515259
			],
			"type":"VEC3"
		},
		{
			"bufferView":106,
			"componentType":5126,
			"count":610,
			"type":"VEC3"
		},
		{
			"bufferView":107,
			"componentType":5126,
			"count":610,
			"type":"VEC2"
		},
		{
			"bufferView":108,
			"componentType":5123,
			"count":1908,
			"type":"SCALAR"
		},
		{
			"bufferView":109,
			"componentType":5126,
			"count":200,
			"max":[
				0.03846587613224983,
				0.026059256866574287,
				0.026059255003929138
			],
			"min":[
				0.020919742062687874,
				-0.026059260591864586,
				-0.026059264317154884
			],
			"type":"VEC3"
		},
		{
			"bufferView":110,
			"componentType":5126,
			"count":200,
			"type":"VEC3"
		},
		{
			"bufferView":111,
			"componentType":5123,
			"count":828,
			"type":"SCALAR"
		},
		{
			"bufferView":112,
			"componentType":5126,
			"count":320,
			"max":[
				0.024408215656876564,
				0.02968626283109188,
				0.02968626469373703
			],
			"min":[
				-4.9523459892952815e-05,
				-0.029686270281672478,
				-0.029686274006962776
			],
			"type":"VEC3"
		},
		{
			"bufferView":113,
			"componentType":5126,
			"count":320,
			"type":"VEC3"
		},
		{
			"bufferView":114,
			"componentType":5123,
			"count":1014,
			"type":"SCALAR"
		},
		{
			"bufferView":115,
			"componentType":5126,
			"count":200,
			"max":[
				0.03846587613224983,
				0.026059256866574287,
				0.026059264317154884
			],
			"min":[
				0.020919742062687874,
				-0.026059260591864586,
				-0.026059255003929138
			],
			"type":"VEC3"
		},
		{
			"bufferView":116,
			"componentType":5126,
			"count":200,
			"type":"VEC3"
		},
		{
			"bufferView":117,
			"componentType":5123,
			"count":828,
			"type":"SCALAR"
		},
		{
			"bufferView":118,
			"componentType":5126,
			"count":320,
			"max":[
				0.024408215656876564,
				0.02968626283109188,
				0.029686274006962776
			],
			"min":[
				-4.9523459892952815e-05,
				-0.029686270281672478,
				-0.02968626469373703
			],
			"type":"VEC3"
		},
		{
			"bufferView":119,
			"componentType":5126,
			"count":320,
			"type":"VEC3"
		},
		{
			"bufferView":120,
			"componentType":5123,
			"count":1014,
			"type":"SCALAR"
		},
		{
			"bufferView":121,
			"componentType":5126,
			"count":1332,
			"max":[
				-0.07466333359479904,
				0.0820678174495697,
				0.006045599468052387
			],
			"min":[
				-0.144727423787117,
				-0.0820678174495697,
				-0.04297726973891258
			],
			"type":"VEC3"
		},
		{
			"bufferView":122,
			"componentType":5126,
			"count":1332,
			"type":"VEC3"
		},
		{
			"bufferView":123,
			"componentType":5126,
			"count":1332,
			"type":"VEC2"
		},
		{
			"bufferView":124,
			"componentType":5123,
			"count":5616,
			"type":"SCALAR"
		},
		{
			"bufferView":125,
			"componentType":5126,
			"count":120,
			"max":[
				-0.08103232085704803,
				0.04747901111841202,
				-0.004650910384953022
			],
			"min":[
				-0.12406884133815765,
				-0.04747901111841202,
				-0.03228076919913292
			],
			"type":"VEC3"
		},
		{
			"bufferView":126,
			"componentType":5126,
			"count":120,
			"type":"VEC3"
		},
		{
			"bufferView":127,
			"componentType":5126,
			"count":120,
			"type":"VEC2"
		},
		{
			"bufferView":128,
			"componentType":5123,
			"count":216,
			"type":"SCALAR"
		},
		{
			"bufferView":129,
			"componentType":5126,
			"count":256,
			"max":[
				0.12406855821609497,
				0.12406852841377258,
				0.020549016073346138
			],
			"min":[
				-0.12406860291957855,
				-0.12406852841377258,
				-0.022959992289543152
			],
			"type":"VEC3"
		},
		{
			"bufferView":130,
			"componentType":5126,
			"count":256,
			"type":"VEC3"
		},
		{
			"bufferView":131,
			"componentType":5126,
			"count":256,
			"type":"VEC2"
		},
		{
			"bufferView":132,
			"componentType":5123,
			"count":756,
			"type":"SCALAR"
		},
		{
			"bufferView":133,
			"componentType":5126,
			"count":1717,
			"max":[
				0.1875157207250595,
				0.18751570582389832,
				0.07793541997671127
			],
			"min":[
				-0.1875157207250595,
				-0.18751569092273712,
				-0.07834885269403458
			],
			"type":"VEC3"
		},
		{
			"bufferView":134,
			"componentType":5126,
			"count":1717,
			"type":"VEC3"
		},
		{
			"bufferView":135,
			"componentType":5126,
			"count":1717,
			"type":"VEC2"
		},
		{
			"bufferView":136,
			"componentType":5123,
			"count":5046,
			"type":"SCALAR"
		},
		{
			"bufferView":137,
			"componentType":5126,
			"count":915,
			"max":[
				0.3304201662540436,
				0.3304201066493988,
				0.07452181726694107
			],
			"min":[
				-0.3304201662540436,
				-0.3304201066493988,
				-0.07500005513429642
			],
			"type":"VEC3"
		},
		{
			"bufferView":138,
			"componentType":5126,
			"count":915,
			"type":"VEC3"
		},
		{
			"bufferView":139,
			"componentType":5126,
			"count":915,
			"type":"VEC2"
		},
		{
			"bufferView":140,
			"componentType":5123,
			"count":1536,
			"type":"SCALAR"
		},
		{
			"bufferView":141,
			"componentType":5126,
			"count":1333,
			"max":[
				-0.07466309517621994,
				0.0820678174495697,
				0.04297763109207153
			],
			"min":[
				-0.1447271853685379,
				-0.0820678174495697,
				-0.006045239977538586
			],
			"type":"VEC3"
		},
		{
			"bufferView":142,
			"componentType":5126,
			"count":1333,
			"type":"VEC3"
		},
		{
			"bufferView":143,
			"componentType":5126,
			"count":1333,
			"type":"VEC2"
		},
		{
			"bufferView":144,
			"componentType":5123,
			"count":5616,
			"type":"SCALAR"
		},
		{
			"bufferView":145,
			"componentType":5126,
			"count":120,
			"max":[
				-0.08103208243846893,
				0.04747901111841202,
				0.03228113055229187
			],
			"min":[
				-0.12406860291957855,
				-0.04747901111841202,
				0.004651269875466824
			],
			"type":"VEC3"
		},
		{
			"bufferView":146,
			"componentType":5126,
			"count":120,
			"type":"VEC3"
		},
		{
			"bufferView":147,
			"componentType":5126,
			"count":120,
			"type":"VEC2"
		},
		{
			"bufferView":148,
			"componentType":5123,
			"count":216,
			"type":"SCALAR"
		},
		{
			"bufferView":149,
			"componentType":5126,
			"count":256,
			"max":[
				0.12406855821609497,
				0.12406852841377258,
				0.0229599941521883
			],
			"min":[
				-0.12406860291957855,
				-0.12406852841377258,
				-0.020549016073346138
			],
			"type":"VEC3"
		},
		{
			"bufferView":150,
			"componentType":5126,
			"count":256,
			"type":"VEC3"
		},
		{
			"bufferView":151,
			"componentType":5126,
			"count":256,
			"type":"VEC2"
		},
		{
			"bufferView":152,
			"componentType":5123,
			"count":756,
			"type":"SCALAR"
		},
		{
			"bufferView":153,
			"componentType":5126,
			"count":1717,
			"max":[
				0.1875157207250595,
				0.18751570582389832,
				0.07834883779287338
			],
			"min":[
				-0.1875157207250595,
				-0.18751569092273712,
				-0.07793540507555008
			],
			"type":"VEC3"
		},
		{
			"bufferView":154,
			"componentType":5126,
			"count":1717,
			"type":"VEC3"
		},
		{
			"bufferView":155,
			"componentType":5126,
			"count":1717,
			"type":"VEC2"
		},
		{
			"bufferView":156,
			"componentType":5123,
			"count":5046,
			"type":"SCALAR"
		},
		{
			"bufferView":157,
			"componentType":5126,
			"count":601,
			"max":[
				0.3304201662540436,
				0.3304201066493988,
				0.07500005513429642
			],
			"min":[
				-0.3304201662540436,
				-0.3304201066493988,
				-0.07452181726694107
			],
			"type":"VEC3"
		},
		{
			"bufferView":158,
			"componentType":5126,
			"count":601,
			"type":"VEC3"
		},
		{
			"bufferView":159,
			"componentType":5126,
			"count":601,
			"type":"VEC2"
		},
		{
			"bufferView":160,
			"componentType":5123,
			"count":1536,
			"type":"SCALAR"
		},
		{
			"bufferView":161,
			"componentType":5126,
			"count":1334,
			"max":[
				0.03503204509615898,
				0.0820678174495697,
				0.024511441588401794
			],
			"min":[
				-0.03503204509615898,
				-0.0820678174495697,
				-0.0245114304125309
			],
			"type":"VEC3"
		},
		{
			"bufferView":162,
			"componentType":5126,
			"count":1334,
			"type":"VEC3"
		},
		{
			"bufferView":163,
			"componentType":5126,
			"count":1334,
			"type":"VEC2"
		},
		{
			"bufferView":164,
			"componentType":5123,
			"count":5616,
			"type":"SCALAR"
		},
		{
			"bufferView":165,
			"componentType":5126,
			"count":120,
			"max":[
				0.01437346264719963,
				0.04747901111841202,
				0.01381493080407381
			],
			"min":[
				-0.02866305783390999,
				-0.04747901111841202,
				-0.013814929872751236
			],
			"type":"VEC3"
		},
		{
			"bufferView":166,
			"componentType":5126,
			"count":120,
			"type":"VEC3"
		},
		{
			"bufferView":167,
			"componentType":5126,
			"count":120,
			"type":"VEC2"
		},
		{
			"bufferView":168,
			"componentType":5123,
			"count":216,
			"type":"SCALAR"
		},
		{
			"bufferView":169,
			"componentType":5126,
			"count":256,
			"max":[
				0.12406858056783676,
				0.12406852841377258,
				0.02175450138747692
			],
			"min":[
				-0.12406857311725616,
				-0.12406852841377258,
				-0.02175450697541237
			],
			"type":"VEC3"
		},
		{
			"bufferView":170,
			"componentType":5126,
			"count":256,
			"type":"VEC3"
		},
		{
			"bufferView":171,
			"componentType":5126,
			"count":256,
			"type":"VEC2"
		},
		{
			"bufferView":172,
			"componentType":5126,
			"count":1717,
			"max":[
				0.1875157207250595,
				0.18751570582389832,
				0.07793620228767395
			],
			"min":[
				-0.1875157207250595,
				-0.18751570582389832,
				-0.0783480778336525
			],
			"type":"VEC3"
		},
		{
			"bufferView":173,
			"componentType":5126,
			"count":1717,
			"type":"VEC3"
		},
		{
			"bufferView":174,
			"componentType":5126,
			"count":1717,
			"type":"VEC2"
		},
		{
			"bufferView":175,
			"componentType":5126,
			"count":915,
			"max":[
				0.3304201662540436,
				0.3304201066493988,
				0.07452257722616196
			],
			"min":[
				-0.3304201662540436,
				-0.3304201066493988,
				-0.07499929517507553
			],
			"type":"VEC3"
		},
		{
			"bufferView":176,
			"componentType":5126,
			"count":915,
			"type":"VEC3"
		},
		{
			"bufferView":177,
			"componentType":5126,
			"count":915,
			"type":"VEC2"
		},
		{
			"bufferView":178,
			"componentType":5126,
			"count":1332,
			"max":[
				0.1447271853685379,
				0.0820678174495697,
				0.04297726973891258
			],
			"min":[
				0.07466309517621994,
				-0.0820678174495697,
				-0.006045599468052387
			],
			"type":"VEC3"
		},
		{
			"bufferView":179,
			"componentType":5126,
			"count":1332,
			"type":"VEC3"
		},
		{
			"bufferView":180,
			"componentType":5126,
			"count":1332,
			"type":"VEC2"
		},
		{
			"bufferView":181,
			"componentType":5123,
			"count":5616,
			"type":"SCALAR"
		},
		{
			"bufferView":182,
			"componentType":5126,
			"count":120,
			"max":[
				0.12406860291957855,
				0.04747901111841202,
				0.03228076919913292
			],
			"min":[
				0.08103208243846893,
				-0.04747901111841202,
				0.004650910384953022
			],
			"type":"VEC3"
		},
		{
			"bufferView":183,
			"componentType":5126,
			"count":120,
			"type":"VEC3"
		},
		{
			"bufferView":184,
			"componentType":5126,
			"count":120,
			"type":"VEC2"
		},
		{
			"bufferView":185,
			"componentType":5123,
			"count":216,
			"type":"SCALAR"
		},
		{
			"bufferView":186,
			"componentType":5126,
			"count":256,
			"max":[
				0.12406855821609497,
				0.12406852841377258,
				0.0229599941521883
			],
			"min":[
				-0.12406860291957855,
				-0.12406852841377258,
				-0.020549016073346138
			],
			"type":"VEC3"
		},
		{
			"bufferView":187,
			"componentType":5126,
			"count":256,
			"type":"VEC3"
		},
		{
			"bufferView":188,
			"componentType":5126,
			"count":256,
			"type":"VEC2"
		},
		{
			"bufferView":189,
			"componentType":5126,
			"count":1717,
			"max":[
				0.1875157207250595,
				0.18751570582389832,
				0.07834883779287338
			],
			"min":[
				-0.1875157207250595,
				-0.18751569092273712,
				-0.07793540507555008
			],
			"type":"VEC3"
		},
		{
			"bufferView":190,
			"componentType":5126,
			"count":1717,
			"type":"VEC3"
		},
		{
			"bufferView":191,
			"componentType":5126,
			"count":1717,
			"type":"VEC2"
		},
		{
			"bufferView":192,
			"componentType":5126,
			"count":914,
			"max":[
				0.3304201662540436,
				0.3304201066493988,
				0.07500005513429642
			],
			"min":[
				-0.3304201662540436,
				-0.3304201066493988,
				-0.07452181726694107
			],
			"type":"VEC3"
		},
		{
			"bufferView":193,
			"componentType":5126,
			"count":914,
			"type":"VEC3"
		},
		{
			"bufferView":194,
			"componentType":5126,
			"count":914,
			"type":"VEC2"
		},
		{
			"bufferView":195,
			"componentType":5123,
			"count":1536,
			"type":"SCALAR"
		},
		{
			"bufferView":196,
			"componentType":5126,
			"count":6525,
			"max":[
				1.9109200239181519,
				0.6461753845214844,
				0.8088400959968567
			],
			"min":[
				-1.896187424659729,
				-0.3943708539009094,
				-0.8088400959968567
			],
			"type":"VEC3"
		},
		{
			"bufferView":197,
			"componentType":5126,
			"count":6525,
			"type":"VEC3"
		},
		{
			"bufferView":198,
			"componentType":5126,
			"count":6525,
			"type":"VEC2"
		},
		{
			"bufferView":199,
			"componentType":5123,
			"count":26964,
			"type":"SCALAR"
		},
		{
			"bufferView":200,
			"componentType":5126,
			"count":44,
			"max":[
				0.7249308228492737,
				0.6199238300323486,
				0.6380059123039246
			],
			"min":[
				0.29345160722732544,
				0.2704678475856781,
				-0.6380060315132141
			],
			"type":"VEC3"
		},
		{
			"bufferView":201,
			"componentType":5126,
			"count":44,
			"type":"VEC3"
		},
		{
			"bufferView":202,
			"componentType":5126,
			"count":44,
			"type":"VEC2"
		},
		{
			"bufferView":203,
			"componentType":5123,
			"count":126,
			"type":"SCALAR"
		},
		{
			"bufferView":204,
			"componentType":5126,
			"count":227,
			"max":[
				0.03555693104863167,
				0.007821738719940186,
				0.032659731805324554
			],
			"min":[
				-0.011569887399673462,
				-0.07896175980567932,
				-0.032659731805324554
			],
			"type":"VEC3"
		},
		{
			"bufferView":205,
			"componentType":5126,
			"count":227,
			"type":"VEC3"
		},
		{
			"bufferView":206,
			"componentType":5126,
			"count":227,
			"type":"VEC2"
		},
		{
			"bufferView":207,
			"componentType":5123,
			"count":870,
			"type":"SCALAR"
		},
		{
			"bufferView":208,
			"componentType":5126,
			"count":520,
			"max":[
				0.013937265612185001,
				0.030085714533925056,
				0.10181169956922531
			],
			"min":[
				-0.0022556339390575886,
				-0.02932809852063656,
				-0.10166966170072556
			],
			"type":"VEC3"
		},
		{
			"bufferView":209,
			"componentType":5126,
			"count":520,
			"type":"VEC3"
		},
		{
			"bufferView":210,
			"componentType":5126,
			"count":520,
			"type":"VEC2"
		},
		{
			"bufferView":211,
			"componentType":5123,
			"count":1896,
			"type":"SCALAR"
		},
		{
			"bufferView":212,
			"componentType":5126,
			"count":45,
			"max":[
				0.012437328696250916,
				0.02610163949429989,
				0.09781364351511002
			],
			"min":[
				0.012027478776872158,
				-0.025312205776572227,
				-0.09767159074544907
			],
			"type":"VEC3"
		},
		{
			"bufferView":213,
			"componentType":5126,
			"count":45,
			"type":"VEC3"
		},
		{
			"bufferView":214,
			"componentType":5126,
			"count":45,
			"type":"VEC2"
		},
		{
			"bufferView":215,
			"componentType":5123,
			"count":84,
			"type":"SCALAR"
		},
		{
			"bufferView":216,
			"componentType":5126,
			"count":465,
			"max":[
				0.010698914527893066,
				0.39477095007896423,
				0.27121245861053467
			],
			"min":[
				-0.2105928659439087,
				-0.07855786383152008,
				-0.27121245861053467
			],
			"type":"VEC3"
		},
		{
			"bufferView":217,
			"componentType":5126,
			"count":465,
			"type":"VEC3"
		},
		{
			"bufferView":218,
			"componentType":5126,
			"count":465,
			"type":"VEC2"
		},
		{
			"bufferView":219,
			"componentType":5123,
			"count":2004,
			"type":"SCALAR"
		},
		{
			"bufferView":220,
			"componentType":5126,
			"count":908,
			"max":[
				0.3309652805328369,
				0.0702456533908844,
				0.2860391438007355
			],
			"min":[
				-0.16323721408843994,
				-0.1878194510936737,
				-0.28603920340538025
			],
			"type":"VEC3"
		},
		{
			"bufferView":221,
			"componentType":5126,
			"count":908,
			"type":"VEC3"
		},
		{
			"bufferView":222,
			"componentType":5126,
			"count":908,
			"type":"VEC2"
		},
		{
			"bufferView":223,
			"componentType":5123,
			"count":3720,
			"type":"SCALAR"
		},
		{
			"bufferView":224,
			"componentType":5126,
			"count":466,
			"max":[
				0.010698795318603516,
				0.39477095007896423,
				0.27121245861053467
			],
			"min":[
				-0.2105928659439087,
				-0.07855784893035889,
				-0.27121251821517944
			],
			"type":"VEC3"
		},
		{
			"bufferView":225,
			"componentType":5126,
			"count":466,
			"type":"VEC3"
		},
		{
			"bufferView":226,
			"componentType":5126,
			"count":466,
			"type":"VEC2"
		},
		{
			"bufferView":227,
			"componentType":5123,
			"count":2004,
			"type":"SCALAR"
		},
		{
			"bufferView":228,
			"componentType":5126,
			"count":909,
			"max":[
				0.33096516132354736,
				0.0702456533908844,
				0.2860391139984131
			],
			"min":[
				-0.16323721408843994,
				-0.1878194510936737,
				-0.2860391438007355
			],
			"type":"VEC3"
		},
		{
			"bufferView":229,
			"componentType":5126,
			"count":909,
			"type":"VEC3"
		},
		{
			"bufferView":230,
			"componentType":5126,
			"count":909,
			"type":"VEC2"
		},
		{
			"bufferView":231,
			"componentType":5123,
			"count":3720,
			"type":"SCALAR"
		},
		{
			"bufferView":232,
			"componentType":5126,
			"count":762,
			"max":[
				-1.9666136503219604,
				0.5851585865020752,
				0.5190997123718262
			],
			"min":[
				-2.088336229324341,
				0.1748521625995636,
				-0.5190991759300232
			],
			"type":"VEC3"
		},
		{
			"bufferView":233,
			"componentType":5126,
			"count":762,
			"type":"VEC3"
		},
		{
			"bufferView":234,
			"componentType":5126,
			"count":762,
			"type":"VEC2"
		},
		{
			"bufferView":235,
			"componentType":5123,
			"count":4560,
			"type":"SCALAR"
		},
		{
			"bufferView":236,
			"componentType":5126,
			"count":803,
			"max":[
				0.14814960956573486,
				0.0029461681842803955,
				0.5148760676383972
			],
			"min":[
				-0.23264086246490479,
				-0.07940571010112762,
				-0.5148760080337524
			],
			"type":"VEC3"
		},
		{
			"bufferView":237,
			"componentType":5126,
			"count":803,
			"type":"VEC3"
		},
		{
			"bufferView":238,
			"componentType":5126,
			"count":803,
			"type":"VEC2"
		},
		{
			"bufferView":239,
			"componentType":5123,
			"count":4176,
			"type":"SCALAR"
		},
		{
			"bufferView":240,
			"componentType":5126,
			"count":680,
			"max":[
				0.1600993573665619,
				0.015120854601264,
				0.18500004708766937
			],
			"min":[
				-0.03337156027555466,
				-0.1175905242562294,
				-0.18500004708766937
			],
			"type":"VEC3"
		},
		{
			"bufferView":241,
			"componentType":5126,
			"count":680,
			"type":"VEC3"
		},
		{
			"bufferView":242,
			"componentType":5126,
			"count":680,
			"type":"VEC2"
		},
		{
			"bufferView":243,
			"componentType":5123,
			"count":2544,
			"type":"SCALAR"
		},
		{
			"bufferView":244,
			"componentType":5126,
			"count":637,
			"max":[
				0.0789026990532875,
				0.18690630793571472,
				0.20000006258487701
			],
			"min":[
				-0.0789026990532875,
				-0.18690630793571472,
				-0.20000006258487701
			],
			"type":"VEC3"
		},
		{
			"bufferView":245,
			"componentType":5126,
			"count":637,
			"type":"VEC3"
		},
		{
			"bufferView":246,
			"componentType":5126,
			"count":637,
			"type":"VEC2"
		},
		{
			"bufferView":247,
			"componentType":5123,
			"count":3432,
			"type":"SCALAR"
		},
		{
			"bufferView":248,
			"componentType":5126,
			"count":165,
			"max":[
				0.5274077653884888,
				0.0177021324634552,
				0.01899997889995575
			],
			"min":[
				-0.006901800632476807,
				-0.22155722975730896,
				-0.019000083208084106
			],
			"type":"VEC3"
		},
		{
			"bufferView":249,
			"componentType":5126,
			"count":165,
			"type":"VEC3"
		},
		{
			"bufferView":250,
			"componentType":5126,
			"count":165,
			"type":"VEC2"
		},
		{
			"bufferView":251,
			"componentType":5123,
			"count":384,
			"type":"SCALAR"
		}
	],
	"bufferViews":[
		{
			"buffer":0,
			"byteLength":17988,
			"byteOffset":0,
			"target":34962
		},
		{
			"buffer":0,
			"byteLength":17988,
			"byteOffset":17988,
			"target":34962
		},
		{
			"buffer":0,
			"byteLength":11992,
			"byteOffset":35976,
			"target":34962
		},
		{
			"buffer":0,
			"byteLength":12900,
			"byteOffset":47968,
			"target":34963
		},
		{
			"buffer":0,
			"byteLength":552,
			"byteOffset":60868,
			"target":34962
		},
		{
			"buffer":0,
			"byteLength":552,
			"byteOffset":61420,
			"target":34962
		},
		{
			"buffer":0,
			"byteLength":276,
			"byteOffset":61972,
			"target":34963
		},
		{
			"buffer":0,
			"byteLength":4320,
			"byteOffset":62248,
			"target":34962
		},
		{
			"buffer":0,
			"byteLength":4320,
			"byteOffset":66568,
			"target":34962
		},
		{
			"buffer":0,
			"byteLength":2880,
			"byteOffset":70888,
			"target":34962
		},
		{
			"buffer":0,
			"byteLength":3000,
			"byteOffset":73768,
			"target":34963
		},
		{
			"buffer":0,
			"byteLength":4644,
			"byteOffset":76768,
			"target":34962
		},
		{
			"buffer":0,
			"byteLength":4644,
			"byteOffset":81412,
			"target":34962
		},
		{
			"buffer":0,
			"byteLength":3096,
			"byteOffset":86056,
			"target":34962
		},
		{
			"buffer":0,
			"byteLength":3540,
			"byteOffset":89152,
			"target":34963
		},
		{
			"buffer":0,
			"byteLength":240,
			"byteOffset":92692,
			"target":34962
		},
		{
			"buffer":0,
			"byteLength":240,
			"byteOffset":92932,
			"target":34962
		},
		{
			"buffer":0,
			"byteLength":160,
			"byteOffset":93172,
			"target":34962
		},
		{
			"buffer":0,
			"byteLength":108,
			"byteOffset":93332,
			"target":34963
		},
		{
			"buffer":0,
			"byteLength":3636,
			"byteOffset":93440,
			"target":34962
		},
		{
			"buffer":0,
			"byteLength":3636,
			"byteOffset":97076,
			"target":34962
		},
		{
			"buffer":0,
			"byteLength":2424,
			"byteOffset":100712,
			"target":34962
		},
		{
			"buffer":0,
			"byteLength":2940,
			"byteOffset":103136,
			"target":34963
		},
		{
			"buffer":0,
			"byteLength":360,
			"byteOffset":106076,
			"target":34962
		},
		{
			"buffer":0,
			"byteLength":360,
			"byteOffset":106436,
			"target":34962
		},
		{
			"buffer":0,
			"byteLength":168,
			"byteOffset":106796,
			"target":34963
		},
		{
			"buffer":0,
			"byteLength":9672,
			"byteOffset":106964,
			"target":34962
		},
		{
			"buffer":0,
			"byteLength":9672,
			"byteOffset":116636,
			"target":34962
		},
		{
			"buffer":0,
			"byteLength":6448,
			"byteOffset":126308,
			"target":34962
		},
		{
			"buffer":0,
			"byteLength":7896,
			"byteOffset":132756,
			"target":34963
		},
		{
			"buffer":0,
			"byteLength":4320,
			"byteOffset":140652,
			"target":34962
		},
		{
			"buffer":0,
			"byteLength":4320,
			"byteOffset":144972,
			"target":34962
		},
		{
			"buffer":0,
			"byteLength":2880,
			"byteOffset":149292,
			"target":34962
		},
		{
			"buffer":0,
			"byteLength":3000,
			"byteOffset":152172,
			"target":34963
		},
		{
			"buffer":0,
			"byteLength":4644,
			"byteOffset":155172,
			"target":34962
		},
		{
			"buffer":0,
			"byteLength":4644,
			"byteOffset":159816,
			"target":34962
		},
		{
			"buffer":0,
			"byteLength":3096,
			"byteOffset":164460,
			"target":34962
		},
		{
			"buffer":0,
			"byteLength":3540,
			"byteOffset":167556,
			"target":34963
		},
		{
			"buffer":0,
			"byteLength":240,
			"byteOffset":171096,
			"target":34962
		},
		{
			"buffer":0,
			"byteLength":240,
			"byteOffset":171336,
			"target":34962
		},
		{
			"buffer":0,
			"byteLength":160,
			"byteOffset":171576,
			"target":34962
		},
		{
			"buffer":0,
			"byteLength":108,
			"byteOffset":171736,
			"target":34963
		},
		{
			"buffer":0,
			"byteLength":3636,
			"byteOffset":171844,
			"target":34962
		},
		{
			"buffer":0,
			"byteLength":3636,
			"byteOffset":175480,
			"target":34962
		},
		{
			"buffer":0,
			"byteLength":2424,
			"byteOffset":179116,
			"target":34962
		},
		{
			"buffer":0,
			"byteLength":2940,
			"byteOffset":181540,
			"target":34963
		},
		{
			"buffer":0,
			"byteLength":360,
			"byteOffset":184480,
			"target":34962
		},
		{
			"buffer":0,
			"byteLength":360,
			"byteOffset":184840,
			"target":34962
		},
		{
			"buffer":0,
			"byteLength":240,
			"byteOffset":185200,
			"target":34962
		},
		{
			"buffer":0,
			"byteLength":168,
			"byteOffset":185440,
			"target":34963
		},
		{
			"buffer":0,
			"byteLength":288,
			"byteOffset":185608,
			"target":34962
		},
		{
			"buffer":0,
			"byteLength":288,
			"byteOffset":185896,
			"target":34962
		},
		{
			"buffer":0,
			"byteLength":192,
			"byteOffset":186184,
			"target":34962
		},
		{
			"buffer":0,
			"byteLength":72,
			"byteOffset":186376,
			"target":34963
		},
		{
			"buffer":0,
			"byteLength":288,
			"byteOffset":186448,
			"target":34962
		},
		{
			"buffer":0,
			"byteLength":288,
			"byteOffset":186736,
			"target":34962
		},
		{
			"buffer":0,
			"byteLength":192,
			"byteOffset":187024,
			"target":34962
		},
		{
			"buffer":0,
			"byteLength":2400,
			"byteOffset":187216,
			"target":34962
		},
		{
			"buffer":0,
			"byteLength":2400,
			"byteOffset":189616,
			"target":34962
		},
		{
			"buffer":0,
			"byteLength":1656,
			"byteOffset":192016,
			"target":34963
		},
		{
			"buffer":0,
			"byteLength":3840,
			"byteOffset":193672,
			"target":34962
		},
		{
			"buffer":0,
			"byteLength":3840,
			"byteOffset":197512,
			"target":34962
		},
		{
			"buffer":0,
			"byteLength":2028,
			"byteOffset":201352,
			"target":34963
		},
		{
			"buffer":0,
			"byteLength":2400,
			"byteOffset":203380,
			"target":34962
		},
		{
			"buffer":0,
			"byteLength":2400,
			"byteOffset":205780,
			"target":34962
		},
		{
			"buffer":0,
			"byteLength":1656,
			"byteOffset":208180,
			"target":34963
		},
		{
			"buffer":0,
			"byteLength":3840,
			"byteOffset":209836,
			"target":34962
		},
		{
			"buffer":0,
			"byteLength":3840,
			"byteOffset":213676,
			"target":34962
		},
		{
			"buffer":0,
			"byteLength":2028,
			"byteOffset":217516,
			"target":34963
		},
		{
			"buffer":0,
			"byteLength":2400,
			"byteOffset":219544,
			"target":34962
		},
		{
			"buffer":0,
			"byteLength":2400,
			"byteOffset":221944,
			"target":34962
		},
		{
			"buffer":0,
			"byteLength":1656,
			"byteOffset":224344,
			"target":34963
		},
		{
			"buffer":0,
			"byteLength":3840,
			"byteOffset":226000,
			"target":34962
		},
		{
			"buffer":0,
			"byteLength":3840,
			"byteOffset":229840,
			"target":34962
		},
		{
			"buffer":0,
			"byteLength":2028,
			"byteOffset":233680,
			"target":34963
		},
		{
			"buffer":0,
			"byteLength":2400,
			"byteOffset":235708,
			"target":34962
		},
		{
			"buffer":0,
			"byteLength":2400,
			"byteOffset":238108,
			"target":34962
		},
		{
			"buffer":0,
			"byteLength":1656,
			"byteOffset":240508,
			"target":34963
		},
		{
			"buffer":0,
			"byteLength":3840,
			"byteOffset":242164,
			"target":34962
		},
		{
			"buffer":0,
			"byteLength":3840,
			"byteOffset":246004,
			"target":34962
		},
		{
			"buffer":0,
			"byteLength":2028,
			"byteOffset":249844,
			"target":34963
		},
		{
			"buffer":0,
			"byteLength":2400,
			"byteOffset":251872,
			"target":34962
		},
		{
			"buffer":0,
			"byteLength":2400,
			"byteOffset":254272,
			"target":34962
		},
		{
			"buffer":0,
			"byteLength":1656,
			"byteOffset":256672,
			"target":34963
		},
		{
			"buffer":0,
			"byteLength":3840,
			"byteOffset":258328,
			"target":34962
		},
		{
			"buffer":0,
			"byteLength":3840,
			"byteOffset":262168,
			"target":34962
		},
		{
			"buffer":0,
			"byteLength":2028,
			"byteOffset":266008,
			"target":34963
		},
		{
			"buffer":0,
			"byteLength":2400,
			"byteOffset":268036,
			"target":34962
		},
		{
			"buffer":0,
			"byteLength":2400,
			"byteOffset":270436,
			"target":34962
		},
		{
			"buffer":0,
			"byteLength":1656,
			"byteOffset":272836,
			"target":34963
		},
		{
			"buffer":0,
			"byteLength":3840,
			"byteOffset":274492,
			"target":34962
		},
		{
			"buffer":0,
			"byteLength":3840,
			"byteOffset":278332,
			"target":34962
		},
		{
			"buffer":0,
			"byteLength":2028,
			"byteOffset":282172,
			"target":34963
		},
		{
			"buffer":0,
			"byteLength":5376,
			"byteOffset":284200,
			"target":34962
		},
		{
			"buffer":0,
			"byteLength":5376,
			"byteOffset":289576,
			"target":34962
		},
		{
			"buffer":0,
			"byteLength":3584,
			"byteOffset":294952,
			"target":34962
		},
		{
			"buffer":0,
			"byteLength":4200,
			"byteOffset":298536,
			"target":34963
		},
		{
			"buffer":0,
			"byteLength":7320,
			"byteOffset":302736,
			"target":34962
		},
		{
			"buffer":0,
			"byteLength":7320,
			"byteOffset":310056,
			"target":34962
		},
		{
			"buffer":0,
			"byteLength":4880,
			"byteOffset":317376,
			"target":34962
		},
		{
			"buffer":0,
			"byteLength":3816,
			"byteOffset":322256,
			"target":34963
		},
		{
			"buffer":0,
			"byteLength":5400,
			"byteOffset":326072,
			"target":34962
		},
		{
			"buffer":0,
			"byteLength":5400,
			"byteOffset":331472,
			"target":34962
		},
		{
			"buffer":0,
			"byteLength":3600,
			"byteOffset":336872,
			"target":34962
		},
		{
			"buffer":0,
			"byteLength":4200,
			"byteOffset":340472,
			"target":34963
		},
		{
			"buffer":0,
			"byteLength":7320,
			"byteOffset":344672,
			"target":34962
		},
		{
			"buffer":0,
			"byteLength":7320,
			"byteOffset":351992,
			"target":34962
		},
		{
			"buffer":0,
			"byteLength":4880,
			"byteOffset":359312,
			"target":34962
		},
		{
			"buffer":0,
			"byteLength":3816,
			"byteOffset":364192,
			"target":34963
		},
		{
			"buffer":0,
			"byteLength":2400,
			"byteOffset":368008,
			"target":34962
		},
		{
			"buffer":0,
			"byteLength":2400,
			"byteOffset":370408,
			"target":34962
		},
		{
			"buffer":0,
			"byteLength":1656,
			"byteOffset":372808,
			"target":34963
		},
		{
			"buffer":0,
			"byteLength":3840,
			"byteOffset":374464,
			"target":34962
		},
		{
			"buffer":0,
			"byteLength":3840,
			"byteOffset":378304,
			"target":34962
		},
		{
			"buffer":0,
			"byteLength":2028,
			"byteOffset":382144,
			"target":34963
		},
		{
			"buffer":0,
			"byteLength":2400,
			"byteOffset":384172,
			"target":34962
		},
		{
			"buffer":0,
			"byteLength":2400,
			"byteOffset":386572,
			"target":34962
		},
		{
			"buffer":0,
			"byteLength":1656,
			"byteOffset":388972,
			"target":34963
		},
		{
			"buffer":0,
			"byteLength":3840,
			"byteOffset":390628,
			"target":34962
		},
		{
			"buffer":0,
			"byteLength":3840,
			"byteOffset":394468,
			"target":34962
		},
		{
			"buffer":0,
			"byteLength":2028,
			"byteOffset":398308,
			"target":34963
		},
		{
			"buffer":0,
			"byteLength":15984,
			"byteOffset":400336,
			"target":34962
		},
		{
			"buffer":0,
			"byteLength":15984,
			"byteOffset":416320,
			"target":34962
		},
		{
			"buffer":0,
			"byteLength":10656,
			"byteOffset":432304,
			"target":34962
		},
		{
			"buffer":0,
			"byteLength":11232,
			"byteOffset":442960,
			"target":34963
		},
		{
			"buffer":0,
			"byteLength":1440,
			"byteOffset":454192,
			"target":34962
		},
		{
			"buffer":0,
			"byteLength":1440,
			"byteOffset":455632,
			"target":34962
		},
		{
			"buffer":0,
			"byteLength":960,
			"byteOffset":457072,
			"target":34962
		},
		{
			"buffer":0,
			"byteLength":432,
			"byteOffset":458032,
			"target":34963
		},
		{
			"buffer":0,
			"byteLength":3072,
			"byteOffset":458464,
			"target":34962
		},
		{
			"buffer":0,
			"byteLength":3072,
			"byteOffset":461536,
			"target":34962
		},
		{
			"buffer":0,
			"byteLength":2048,
			"byteOffset":464608,
			"target":34962
		},
		{
			"buffer":0,
			"byteLength":1512,
			"byteOffset":466656,
			"target":34963
		},
		{
			"buffer":0,
			"byteLength":20604,
			"byteOffset":468168,
			"target":34962
		},
		{
			"buffer":0,
			"byteLength":20604,
			"byteOffset":488772,
			"target":34962
		},
		{
			"buffer":0,
			"byteLength":13736,
			"byteOffset":509376,
			"target":34962
		},
		{
			"buffer":0,
			"byteLength":10092,
			"byteOffset":523112,
			"target":34963
		},
		{
			"buffer":0,
			"byteLength":10980,
			"byteOffset":533204,
			"target":34962
		},
		{
			"buffer":0,
			"byteLength":10980,
			"byteOffset":544184,
			"target":34962
		},
		{
			"buffer":0,
			"byteLength":7320,
			"byteOffset":555164,
			"target":34962
		},
		{
			"buffer":0,
			"byteLength":3072,
			"byteOffset":562484,
			"target":34963
		},
		{
			"buffer":0,
			"byteLength":15996,
			"byteOffset":565556,
			"target":34962
		},
		{
			"buffer":0,
			"byteLength":15996,
			"byteOffset":581552,
			"target":34962
		},
		{
			"buffer":0,
			"byteLength":10664,
			"byteOffset":597548,
			"target":34962
		},
		{
			"buffer":0,
			"byteLength":11232,
			"byteOffset":608212,
			"target":34963
		},
		{
			"buffer":0,
			"byteLength":1440,
			"byteOffset":619444,
			"target":34962
		},
		{
			"buffer":0,
			"byteLength":1440,
			"byteOffset":620884,
			"target":34962
		},
		{
			"buffer":0,
			"byteLength":960,
			"byteOffset":622324,
			"target":34962
		},
		{
			"buffer":0,
			"byteLength":432,
			"byteOffset":623284,
			"target":34963
		},
		{
			"buffer":0,
			"byteLength":3072,
			"byteOffset":623716,
			"target":34962
		},
		{
			"buffer":0,
			"byteLength":3072,
			"byteOffset":626788,
			"target":34962
		},
		{
			"buffer":0,
			"byteLength":2048,
			"byteOffset":629860,
			"target":34962
		},
		{
			"buffer":0,
			"byteLength":1512,
			"byteOffset":631908,
			"target":34963
		},
		{
			"buffer":0,
			"byteLength":20604,
			"byteOffset":633420,
			"target":34962
		},
		{
			"buffer":0,
			"byteLength":20604,
			"byteOffset":654024,
			"target":34962
		},
		{
			"buffer":0,
			"byteLength":13736,
			"byteOffset":674628,
			"target":34962
		},
		{
			"buffer":0,
			"byteLength":10092,
			"byteOffset":688364,
			"target":34963
		},
		{
			"buffer":0,
			"byteLength":7212,
			"byteOffset":698456,
			"target":34962
		},
		{
			"buffer":0,
			"byteLength":7212,
			"byteOffset":705668,
			"target":34962
		},
		{
			"buffer":0,
			"byteLength":4808,
			"byteOffset":712880,
			"target":34962
		},
		{
			"buffer":0,
			"byteLength":3072,
			"byteOffset":717688,
			"target":34963
		},
		{
			"buffer":0,
			"byteLength":16008,
			"byteOffset":720760,
			"target":34962
		},
		{
			"buffer":0,
			"byteLength":16008,
			"byteOffset":736768,
			"target":34962
		},
		{
			"buffer":0,
			"byteLength":10672,
			"byteOffset":752776,
			"target":34962
		},
		{
			"buffer":0,
			"byteLength":11232,
			"byteOffset":763448,
			"target":34963
		},
		{
			"buffer":0,
			"byteLength":1440,
			"byteOffset":774680,
			"target":34962
		},
		{
			"buffer":0,
			"byteLength":1440,
			"byteOffset":776120,
			"target":34962
		},
		{
			"buffer":0,
			"byteLength":960,
			"byteOffset":777560,
			"target":34962
		},
		{
			"buffer":0,
			"byteLength":432,
			"byteOffset":778520,
			"target":34963
		},
		{
			"buffer":0,
			"byteLength":3072,
			"byteOffset":778952,
			"target":34962
		},
		{
			"buffer":0,
			"byteLength":3072,
			"byteOffset":782024,
			"target":34962
		},
		{
			"buffer":0,
			"byteLength":2048,
			"byteOffset":785096,
			"target":34962
		},
		{
			"buffer":0,
			"byteLength":20604,
			"byteOffset":787144,
			"target":34962
		},
		{
			"buffer":0,
			"byteLength":20604,
			"byteOffset":807748,
			"target":34962
		},
		{
			"buffer":0,
			"byteLength":13736,
			"byteOffset":828352,
			"target":34962
		},
		{
			"buffer":0,
			"byteLength":10980,
			"byteOffset":842088,
			"target":34962
		},
		{
			"buffer":0,
			"byteLength":10980,
			"byteOffset":853068,
			"target":34962
		},
		{
			"buffer":0,
			"byteLength":7320,
			"byteOffset":864048,
			"target":34962
		},
		{
			"buffer":0,
			"byteLength":15984,
			"byteOffset":871368,
			"target":34962
		},
		{
			"buffer":0,
			"byteLength":15984,
			"byteOffset":887352,
			"target":34962
		},
		{
			"buffer":0,
			"byteLength":10656,
			"byteOffset":903336,
			"target":34962
		},
		{
			"buffer":0,
			"byteLength":11232,
			"byteOffset":913992,
			"target":34963
		},
		{
			"buffer":0,
			"byteLength":1440,
			"byteOffset":925224,
			"target":34962
		},
		{
			"buffer":0,
			"byteLength":1440,
			"byteOffset":926664,
			"target":34962
		},
		{
			"buffer":0,
			"byteLength":960,
			"byteOffset":928104,
			"target":34962
		},
		{
			"buffer":0,
			"byteLength":432,
			"byteOffset":929064,
			"target":34963
		},
		{
			"buffer":0,
			"byteLength":3072,
			"byteOffset":929496,
			"target":34962
		},
		{
			"buffer":0,
			"byteLength":3072,
			"byteOffset":932568,
			"target":34962
		},
		{
			"buffer":0,
			"byteLength":2048,
			"byteOffset":935640,
			"target":34962
		},
		{
			"buffer":0,
			"byteLength":20604,
			"byteOffset":937688,
			"target":34962
		},
		{
			"buffer":0,
			"byteLength":20604,
			"byteOffset":958292,
			"target":34962
		},
		{
			"buffer":0,
			"byteLength":13736,
			"byteOffset":978896,
			"target":34962
		},
		{
			"buffer":0,
			"byteLength":10968,
			"byteOffset":992632,
			"target":34962
		},
		{
			"buffer":0,
			"byteLength":10968,
			"byteOffset":1003600,
			"target":34962
		},
		{
			"buffer":0,
			"byteLength":7312,
			"byteOffset":1014568,
			"target":34962
		},
		{
			"buffer":0,
			"byteLength":3072,
			"byteOffset":1021880,
			"target":34963
		},
		{
			"buffer":0,
			"byteLength":78300,
			"byteOffset":1024952,
			"target":34962
		},
		{
			"buffer":0,
			"byteLength":78300,
			"byteOffset":1103252,
			"target":34962
		},
		{
			"buffer":0,
			"byteLength":52200,
			"byteOffset":1181552,
			"target":34962
		},
		{
			"buffer":0,
			"byteLength":53928,
			"byteOffset":1233752,
			"target":34963
		},
		{
			"buffer":0,
			"byteLength":528,
			"byteOffset":1287680,
			"target":34962
		},
		{
			"buffer":0,
			"byteLength":528,
			"byteOffset":1288208,
			"target":34962
		},
		{
			"buffer":0,
			"byteLength":352,
			"byteOffset":1288736,
			"target":34962
		},
		{
			"buffer":0,
			"byteLength":252,
			"byteOffset":1289088,
			"target":34963
		},
		{
			"buffer":0,
			"byteLength":2724,
			"byteOffset":1289340,
			"target":34962
		},
		{
			"buffer":0,
			"byteLength":2724,
			"byteOffset":1292064,
			"target":34962
		},
		{
			"buffer":0,
			"byteLength":1816,
			"byteOffset":1294788,
			"target":34962
		},
		{
			"buffer":0,
			"byteLength":1740,
			"byteOffset":1296604,
			"target":34963
		},
		{
			"buffer":0,
			"byteLength":6240,
			"byteOffset":1298344,
			"target":34962
		},
		{
			"buffer":0,
			"byteLength":6240,
			"byteOffset":1304584,
			"target":34962
		},
		{
			"buffer":0,
			"byteLength":4160,
			"byteOffset":1310824,
			"target":34962
		},
		{
			"buffer":0,
			"byteLength":3792,
			"byteOffset":1314984,
			"target":34963
		},
		{
			"buffer":0,
			"byteLength":540,
			"byteOffset":1318776,
			"target":34962
		},
		{
			"buffer":0,
			"byteLength":540,
			"byteOffset":1319316,
			"target":34962
		},
		{
			"buffer":0,
			"byteLength":360,
			"byteOffset":1319856,
			"target":34962
		},
		{
			"buffer":0,
			"byteLength":168,
			"byteOffset":1320216,
			"target":34963
		},
		{
			"buffer":0,
			"byteLength":5580,
			"byteOffset":1320384,
			"target":34962
		},
		{
			"buffer":0,
			"byteLength":5580,
			"byteOffset":1325964,
			"target":34962
		},
		{
			"buffer":0,
			"byteLength":3720,
			"byteOffset":1331544,
			"target":34962
		},
		{
			"buffer":0,
			"byteLength":4008,
			"byteOffset":1335264,
			"target":34963
		},
		{
			"buffer":0,
			"byteLength":10896,
			"byteOffset":1339272,
			"target":34962
		},
		{
			"buffer":0,
			"byteLength":10896,
			"byteOffset":1350168,
			"target":34962
		},
		{
			"buffer":0,
			"byteLength":7264,
			"byteOffset":1361064,
			"target":34962
		},
		{
			"buffer":0,
			"byteLength":7440,
			"byteOffset":1368328,
			"target":34963
		},
		{
			"buffer":0,
			"byteLength":5592,
			"byteOffset":1375768,
			"target":34962
		},
		{
			"buffer":0,
			"byteLength":5592,
			"byteOffset":1381360,
			"target":34962
		},
		{
			"buffer":0,
			"byteLength":3728,
			"byteOffset":1386952,
			"target":34962
		},
		{
			"buffer":0,
			"byteLength":4008,
			"byteOffset":1390680,
			"target":34963
		},
		{
			"buffer":0,
			"byteLength":10908,
			"byteOffset":1394688,
			"target":34962
		},
		{
			"buffer":0,
			"byteLength":10908,
			"byteOffset":1405596,
			"target":34962
		},
		{
			"buffer":0,
			"byteLength":7272,
			"byteOffset":1416504,
			"target":34962
		},
		{
			"buffer":0,
			"byteLength":7440,
			"byteOffset":1423776,
			"target":34963
		},
		{
			"buffer":0,
			"byteLength":9144,
			"byteOffset":1431216,
			"target":34962
		},
		{
			"buffer":0,
			"byteLength":9144,
			"byteOffset":1440360,
			"target":34962
		},
		{
			"buffer":0,
			"byteLength":6096,
			"byteOffset":1449504,
			"target":34962
		},
		{
			"buffer":0,
			"byteLength":9120,
			"byteOffset":1455600,
			"target":34963
		},
		{
			"buffer":0,
			"byteLength":9636,
			"byteOffset":1464720,
			"target":34962
		},
		{
			"buffer":0,
			"byteLength":9636,
			"byteOffset":1474356,
			"target":34962
		},
		{
			"buffer":0,
			"byteLength":6424,
			"byteOffset":1483992,
			"target":34962
		},
		{
			"buffer":0,
			"byteLength":8352,
			"byteOffset":1490416,
			"target":34963
		},
		{
			"buffer":0,
			"byteLength":8160,
			"byteOffset":1498768,
			"target":34962
		},
		{
			"buffer":0,
			"byteLength":8160,
			"byteOffset":1506928,
			"target":34962
		},
		{
			"buffer":0,
			"byteLength":5440,
			"byteOffset":1515088,
			"target":34962
		},
		{
			"buffer":0,
			"byteLength":5088,
			"byteOffset":1520528,
			"target":34963
		},
		{
			"buffer":0,
			"byteLength":7644,
			"byteOffset":1525616,
			"target":34962
		},
		{
			"buffer":0,
			"byteLength":7644,
			"byteOffset":1533260,
			"target":34962
		},
		{
			"buffer":0,
			"byteLength":5096,
			"byteOffset":1540904,
			"target":34962
		},
		{
			"buffer":0,
			"byteLength":6864,
			"byteOffset":1546000,
			"target":34963
		},
		{
			"buffer":0,
			"byteLength":1980,
			"byteOffset":1552864,
			"target":34962
		},
		{
			"buffer":0,
			"byteLength":1980,
			"byteOffset":1554844,
			"target":34962
		},
		{
			"buffer":0,
			"byteLength":1320,
			"byteOffset":1556824,
			"target":34962
		},
		{
			"buffer":0,
			"byteLength":768,
			"byteOffset":1558144,
			"target":34963
		}
	],
	"samplers":[
		{
			"magFilter":9729,
			"minFilter":9987
		}
	],
	"buffers":[
		{
			"byteLength":1558912,
			"uri":"vehicle_example.bin"
		}
	]
}
