{
	"asset":{
		"generator":"Khronos glTF Blender I/O v4.5.49",
		"version":"2.0"
	},
	"scene":0,
	"scenes":[
		{
			"name":"Scene",
			"nodes":[
				22
			]
		}
	],
	"nodes":[
		{
			"mesh":0,
			"name":"Lane_Left",
			"rotation":[
				-0.70710688829422,
				0,
				0,
				0.7071066498756409
			],
			"translation":[
				0,
				0,
				-7.950000762939453
			]
		},
		{
			"mesh":1,
			"name":"Lane_Right",
			"rotation":[
				-0.70710688829422,
				0,
				0,
				0.7071066498756409
			],
			"translation":[
				0,
				0,
				-7.950000762939453
			]
		},
		{
			"children":[
				0,
				1
			],
			"name":"Grp_Drivable_Area"
		},
		{
			"mesh":2,
			"name":"Road_Mark_Broken_Center",
			"rotation":[
				-0.70710688829422,
				0,
				0,
				0.7071066498756409
			],
			"translation":[
				0,
				0,
				-7.950000762939453
			]
		},
		{
			"mesh":3,
			"name":"Road_Mark_Solid_Left",
			"rotation":[
				-0.70710688829422,
				0,
				0,
				0.7071066498756409
			],
			"translation":[
				0,
				0,
				-7.950000762939453
			]
		},
		{
			"mesh":4,
			"name":"Road_Mark_Solid_Right",
			"rotation":[
				-0.70710688829422,
				0,
				0,
				0.7071066498756409
			],
			"translation":[
				0,
				0,
				-7.950000762939453
			]
		},
		{
			"children":[
				3,
				4,
				5
			],
			"name":"Grp_Road_Marks"
		},
		{
			"mesh":5,
			"name":"Traffic_Light_0_Pole",
			"translation":[
				50,
				0.9549999833106995,
				-5.599999904632568
			]
		},
		{
			"mesh":6,
			"name":"Traffic_Light_1_Pole",
			"translation":[
				50,
				0.9549999833106995,
				5.599999904632568
			]
		},
		{
			"children":[
				7,
				8
			],
			"name":"Grp_Road_Objects"
		},
		{
			"mesh":7,
			"name":"Curb_Left",
			"rotation":[
				-0.70710688829422,
				0,
				0,
				0.7071066498756409
			],
			"translation":[
				0,
				0,
				-7.950000762939453
			]
		},
		{
			"mesh":8,
			"name":"Curb_Right",
			"rotation":[
				-0.70710688829422,
				0,
				0,
				0.7071066498756409
			],
			"translation":[
				0,
				0,
				-7.950000762939453
			]
		},
		{
			"mesh":9,
			"name":"Sidewalk_Left",
			"rotation":[
				-0.70710688829422,
				0,
				0,
				0.7071066498756409
			],
			"translation":[
				0,
				0,
				-7.950000762939453
			]
		},
		{
			"mesh":10,
			"name":"Sidewalk_Right",
			"rotation":[
				-0.70710688829422,
				0,
				0,
				0.7071066498756409
			],
			"translation":[
				0,
				0,
				-7.950000762939453
			]
		},
		{
			"children":[
				10,
				11,
				12,
				13
			],
			"name":"Grp_Sidewalks"
		},
		{
			"name":"Grp_Traffic_Light_0",
			"translation":[
				50,
				2.299999952316284,
				-5.599999904632568
			]
		},
		{
			"name":"Grp_Traffic_Light_1",
			"rotation":[
				0,
				-1,
				0,
				4.371138828673793e-08
			],
			"translation":[
				50,
				2.299999952316284,
				5.599999904632568
			]
		},
		{
			"children":[
				15,
				16
			],
			"name":"Grp_Signals"
		},
		{
			"children":[
				2,
				6,
				9,
				14,
				17
			],
			"name":"Grp_Road_Network"
		},
		{
			"mesh":11,
			"name":"Terrain_Left",
			"rotation":[
				-0.70710688829422,
				0,
				0,
				0.7071066498756409
			],
			"translation":[
				0,
				0,
				-7.950000762939453
			]
		},
		{
			"mesh":12,
			"name":"Terrain_Right",
			"rotation":[
				-0.70710688829422,
				0,
				0,
				0.7071066498756409
			],
			"translation":[
				0,
				0,
				-7.950000762939453
			]
		},
		{
			"children":[
				19,
				20
			],
			"name":"Grp_Terrain"
		},
		{
			"children":[
				18,
				21
			],
			"name":"Grp_Root"
		}
	],
	"materials":[
		{
			"name":"Asphalt",
			"pbrMetallicRoughness":{
				"baseColorFactor":[
					0.1993788778781891,
					0.1993788778781891,
					0.1993788778781891,
					1
				]
			}
		},
		{
			"name":"Lanemarking",
			"pbrMetallicRoughness":{
				"baseColorFactor":[
					0.7874157428741455,
					0.7874157428741455,
					0.7091394662857056,
					1
				]
			}
		},
		{
			"doubleSided":true,
			"name":"Pole",
			"pbrMetallicRoughness":{
				"baseColorFactor":[
					0.12228564918041229,
					0.12228564918041229,
					0.12228564918041229,
					1
				],
				"metallicFactor":0.20000000298023224,
				"roughnessFactor":0.800000011920929
			}
		},
		{
			"name":"Curb",
			"pbrMetallicRoughness":{
				"baseColorFactor":[
					0.21534423530101776,
					0.21534423530101776,
					0.21534423530101776,
					1
				]
			}
		},
		{
			"name":"Sidewalk",
			"pbrMetallicRoughness":{
				"baseColorFactor":[
					0.4447525143623352,
					0.4447525143623352,
					0.4447525143623352,
					1
				]
			}
		},
		{
			"name":"Grass",
			"pbrMetallicRoughness":{
				"baseColorFactor":[
					0,
					0.12153825163841248,
					0,
					1
				]
			}
		}
	],
	"meshes":[
		{
			"name":"Mesh_15",
			"primitives":[
				{
					"attributes":{
						"POSITION":0,
						"NORMAL":1,
						"TEXCOORD_0":2,
						"COLOR_0":3,
						"COLOR_1":4
					},
					"indices":5,
					"material":0
				}
			]
		},
		{
			"name":"Mesh_16",
			"primitives":[
				{
					"attributes":{
						"POSITION":6,
						"NORMAL":7,
						"TEXCOORD_0":8,
						"COLOR_0":9,
						"COLOR_1":10
					},
					"indices":5,
					"material":0
				}
			]
		},
		{
			"name":"Mesh_2",
			"primitives":[
				{
					"attributes":{
						"POSITION":11,
						"NORMAL":12,
						"TEXCOORD_0":13,
						"COLOR_0":14,
						"COLOR_1":15
					},
					"indices":16,
					"material":1
				}
			]
		},
		{
			"name":"Mesh_1",
			"primitives":[
				{
					"attributes":{
						"POSITION":17,
						"NORMAL":18,
						"TEXCOORD_0":19,
						"COLOR_0":20,
						"COLOR_1":21
					},
					"indices":22,
					"material":1
				}
			]
		},
		{
			"name":"Mesh_11",
			"primitives":[
				{
					"attributes":{
						"POSITION":23,
						"NORMAL":24,
						"TEXCOORD_0":25,
						"COLOR_0":26,
						"COLOR_1":27
					},
					"indices":28,
					"material":1
				}
			]
		},
		{
			"name":"Cylinder",
			"primitives":[
				{
					"attributes":{
						"POSITION":29,
						"NORMAL":30,
						"TEXCOORD_0":31
					},
					"indices":32,
					"material":2
				}
			]
		},
		{
			"name":"Cylinder.001",
			"primitives":[
				{
					"attributes":{
						"POSITION":33,
						"NORMAL":34,
						"TEXCOORD_0":35
					},
					"indices":32,
					"material":2
				}
			]
		},
		{
			"name":"Mesh_14",
			"primitives":[
				{
					"attributes":{
						"POSITION":36,
						"NORMAL":37,
						"TEXCOORD_0":38,
						"COLOR_0":39,
						"COLOR_1":40
					},
					"indices":5,
					"material":3
				}
			]
		},
		{
			"name":"Mesh_17",
			"primitives":[
				{
					"attributes":{
						"POSITION":41,
						"NORMAL":42,
						"TEXCOORD_0":43,
						"COLOR_0":44,
						"COLOR_1":45
					},
					"indices":5,
					"material":3
				}
			]
		},
		{
			"name":"Mesh_13",
			"primitives":[
				{
					"attributes":{
						"POSITION":46,
						"NORMAL":47,
						"TEXCOORD_0":48,
						"COLOR_0":49,
						"COLOR_1":50
					},
					"indices":5,
					"material":4
				}
			]
		},
		{
			"name":"Mesh_18",
			"primitives":[
				{
					"attributes":{
						"POSITION":51,
						"NORMAL":52,
						"TEXCOORD_0":53,
						"COLOR_0":54,
						"COLOR_1":55
					},
					"indices":5,
					"material":4
				}
			]
		},
		{
			"name":"Mesh_12",
			"primitives":[
				{
					"attributes":{
						"POSITION":56,
						"NORMAL":57,
						"TEXCOORD_0":58,
						"COLOR_0":59,
						"COLOR_1":60
					},
					"indices":5,
					"material":5
				}
			]
		},
		{
			"name":"Mesh_19",
			"primitives":[
				{
					"attributes":{
						"POSITION":61,
						"NORMAL":62,
						"TEXCOORD_0":63,
						"COLOR_0":64,
						"COLOR_1":65
					},
					"indices":5,
					"material":5
				}
			]
		}
	],
	"accessors":[
		{
			"bufferView":0,
			"componentType":5126,
			"count":6,
			"max":[
				100,
				-4.199999809265137,
				0
			],
			"min":[
				0,
				-7.949999809265137,
				0
			],
			"type":"VEC3"
		},
		{
			"bufferView":1,
			"componentType":5126,
			"count":6,
			"type":"VEC3"
		},
		{
			"bufferView":2,
			"componentType":5126,
			"count":6,
			"type":"VEC2"
		},
		{
			"bufferView":3,
			"componentType":5121,
			"count":6,
			"normalized":true,
			"type":"VEC4"
		},
		{
			"bufferView":4,
			"componentType":5123,
			"count":6,
			"normalized":true,
			"type":"VEC4"
		},
		{
			"bufferView":5,
			"componentType":5123,
			"count":12,
			"type":"SCALAR"
		},
		{
			"bufferView":6,
			"componentType":5126,
			"count":6,
			"max":[
				100,
				-7.949999809265137,
				0
			],
			"min":[
				0,
				-11.699999809265137,
				0
			],
			"type":"VEC3"
		},
		{
			"bufferView":7,
			"componentType":5126,
			"count":6,
			"type":"VEC3"
		},
		{
			"bufferView":8,
			"componentType":5126,
			"count":6,
			"type":"VEC2"
		},
		{
			"bufferView":9,
			"componentType":5121,
			"count":6,
			"normalized":true,
			"type":"VEC4"
		},
		{
			"bufferView":10,
			"componentType":5123,
			"count":6,
			"normalized":true,
			"type":"VEC4"
		},
		{
			"bufferView":11,
			"componentType":5126,
			"count":36,
			"max":[
				100,
				-7.885000228881836,
				0.019999999552965164
			],
			"min":[
				0,
				-8.01500129699707,
				0.019999999552965164
			],
			"type":"VEC3"
		},
		{
			"bufferView":12,
			"componentType":5126,
			"count":36,
			"type":"VEC3"
		},
		{
			"bufferView":13,
			"componentType":5126,
			"count":36,
			"type":"VEC2"
		},
		{
			"bufferView":14,
			"componentType":5121,
			"count":36,
			"normalized":true,
			"type":"VEC4"
		},
		{
			"bufferView":15,
			"componentType":5123,
			"count":36,
			"normalized":true,
			"type":"VEC4"
		},
		{
			"bufferView":16,
			"componentType":5123,
			"count":54,
			"type":"SCALAR"
		},
		{
			"bufferView":17,
			"componentType":5126,
			"count":8,
			"max":[
				100,
				-4.135000228881836,
				0.03999999910593033
			],
			"min":[
				0,
				-4.264999866485596,
				0.019999999552965164
			],
			"type":"VEC3"
		},
		{
			"bufferView":18,
			"componentType":5126,
			"count":8,
			"type":"VEC3"
		},
		{
			"bufferView":19,
			"componentType":5126,
			"count":8,
			"type":"VEC2"
		},
		{
			"bufferView":20,
			"componentType":5121,
			"count":8,
			"normalized":true,
			"type":"VEC4"
		},
		{
			"bufferView":21,
			"componentType":5123,
			"count":8,
			"normalized":true,
			"type":"VEC4"
		},
		{
			"bufferView":22,
			"componentType":5123,
			"count":12,
			"type":"SCALAR"
		},
		{
			"bufferView":23,
			"componentType":5126,
			"count":10,
			"max":[
				100,
				-11.635000228881836,
				0.03999999910593033
			],
			"min":[
				0,
				-11.765000343322754,
				0.019999999552965164
			],
			"type":"VEC3"
		},
		{
			"bufferView":24,
			"componentType":5126,
			"count":10,
			"type":"VEC3"
		},
		{
			"bufferView":25,
			"componentType":5126,
			"count":10,
			"type":"VEC2"
		},
		{
			"bufferView":26,
			"componentType":5121,
			"count":10,
			"normalized":true,
			"type":"VEC4"
		},
		{
			"bufferView":27,
			"componentType":5123,
			"count":10,
			"normalized":true,
			"type":"VEC4"
		},
		{
			"bufferView":28,
			"componentType":5123,
			"count":12,
			"type":"SCALAR"
		},
		{
			"bufferView":29,
			"componentType":5126,
			"count":192,
			"max":[
				0.05000000074505806,
				0.9549999833106995,
				0.05000000074505806
			],
			"min":[
				-0.05000000074505806,
				-0.9549999833106995,
				-0.05000000074505806
			],
			"type":"VEC3"
		},
		{
			"bufferView":30,
			"componentType":5126,
			"count":192,
			"type":"VEC3"
		},
		{
			"bufferView":31,
			"componentType":5126,
			"count":192,
			"type":"VEC2"
		},
		{
			"bufferView":32,
			"componentType":5123,
			"count":372,
			"type":"SCALAR"
		},
		{
			"bufferView":33,
			"componentType":5126,
			"count":192,
			"max":[
				0.05000000074505806,
				0.9549999833106995,
				0.05000000074505806
			],
			"min":[
				-0.05000000074505806,
				-0.9549999833106995,
				-0.05000000074505806
			],
			"type":"VEC3"
		},
		{
			"bufferView":34,
			"componentType":5126,
			"count":192,
			"type":"VEC3"
		},
		{
			"bufferView":35,
			"componentType":5126,
			"count":192,
			"type":"VEC2"
		},
		{
			"bufferView":36,
			"componentType":5126,
			"count":6,
			"max":[
				100,
				-3.8499999046325684,
				0
			],
			"min":[
				0,
				-4.199999809265137,
				0
			],
			"type":"VEC3"
		},
		{
			"bufferView":37,
			"componentType":5126,
			"count":6,
			"type":"VEC3"
		},
		{
			"bufferView":38,
			"componentType":5126,
			"count":6,
			"type":"VEC2"
		},
		{
			"bufferView":39,
			"componentType":5121,
			"count":6,
			"normalized":true,
			"type":"VEC4"
		},
		{
			"bufferView":40,
			"componentType":5123,
			"count":6,
			"normalized":true,
			"type":"VEC4"
		},
		{
			"bufferView":41,
			"componentType":5126,
			"count":6,
			"max":[
				100,
				-11.699999809265137,
				0
			],
			"min":[
				0,
				-12.050000190734863,
				0
			],
			"type":"VEC3"
		},
		{
			"bufferView":42,
			"componentType":5126,
			"count":6,
			"type":"VEC3"
		},
		{
			"bufferView":43,
			"componentType":5126,
			"count":6,
			"type":"VEC2"
		},
		{
			"bufferView":44,
			"componentType":5121,
			"count":6,
			"normalized":true,
			"type":"VEC4"
		},
		{
			"bufferView":45,
			"componentType":5123,
			"count":6,
			"normalized":true,
			"type":"VEC4"
		},
		{
			"bufferView":46,
			"componentType":5126,
			"count":6,
			"max":[
				100,
				-2.3499999046325684,
				0
			],
			"min":[
				0,
				-3.8499999046325684,
				0
			],
			"type":"VEC3"
		},
		{
			"bufferView":47,
			"componentType":5126,
			"count":6,
			"type":"VEC3"
		},
		{
			"bufferView":48,
			"componentType":5126,
			"count":6,
			"type":"VEC2"
		},
		{
			"bufferView":49,
			"componentType":5121,
			"count":6,
			"normalized":true,
			"type":"VEC4"
		},
		{
			"bufferView":50,
			"componentType":5123,
			"count":6,
			"normalized":true,
			"type":"VEC4"
		},
		{
			"bufferView":51,
			"componentType":5126,
			"count":6,
			"max":[
				100,
				-12.050000190734863,
				0
			],
			"min":[
				0,
				-13.550000190734863,
				0
			],
			"type":"VEC3"
		},
		{
			"bufferView":52,
			"componentType":5126,
			"count":6,
			"type":"VEC3"
		},
		{
			"bufferView":53,
			"componentType":5126,
			"count":6,
			"type":"VEC2"
		},
		{
			"bufferView":54,
			"componentType":5121,
			"count":6,
			"normalized":true,
			"type":"VEC4"
		},
		{
			"bufferView":55,
			"componentType":5123,
			"count":6,
			"normalized":true,
			"type":"VEC4"
		},
		{
			"bufferView":56,
			"componentType":5126,
			"count":6,
			"max":[
				100,
				2.3499999046325684,
				0
			],
			"min":[
				0,
				-2.3499999046325684,
				0
			],
			"type":"VEC3"
		},
		{
			"bufferView":57,
			"componentType":5126,
			"count":6,
			"type":"VEC3"
		},
		{
			"bufferView":58,
			"componentType":5126,
			"count":6,
			"type":"VEC2"
		},
		{
			"bufferView":59,
			"componentType":5121,
			"count":6,
			"normalized":true,
			"type":"VEC4"
		},
		{
			"bufferView":60,
			"componentType":5123,
			"count":6,
			"normalized":true,
			"type":"VEC4"
		},
		{
			"bufferView":61,
			"componentType":5126,
			"count":6,
			"max":[
				100,
				-13.550000190734863,
				0
			],
			"min":[
				0,
				-18.25,
				0
			],
			"type":"VEC3"
		},
		{
			"bufferView":62,
			"componentType":5126,
			"count":6,
			"type":"VEC3"
		},
		{
			"bufferView":63,
			"componentType":5126,
			"count":6,
			"type":"VEC2"
		},
		{
			"bufferView":64,
			"componentType":5121,
			"count":6,
			"normalized":true,
			"type":"VEC4"
		},
		{
			"bufferView":65,
			"componentType":5123,
			"count":6,
			"normalized":true,
			"type":"VEC4"
		}
	],
	"bufferViews":[
		{
			"buffer":0,
			"byteLength":72,
			"byteOffset":0,
			"target":34962
		},
		{
			"buffer":0,
			"byteLength":72,
			"byteOffset":72,
			"target":34962
		},
		{
			"buffer":0,
			"byteLength":48,
			"byteOffset":144,
			"target":34962
		},
		{
			"buffer":0,
			"byteLength":24,
			"byteOffset":192,
			"target":34962
		},
		{
			"buffer":0,
			"byteLength":48,
			"byteOffset":216,
			"target":34962
		},
		{
			"buffer":0,
			"byteLength":24,
			"byteOffset":264,
			"target":34963
		},
		{
			"buffer":0,
			"byteLength":72,
			"byteOffset":288,
			"target":34962
		},
		{
			"buffer":0,
			"byteLength":72,
			"byteOffset":360,
			"target":34962
		},
		{
			"buffer":0,
			"byteLength":48,
			"byteOffset":432,
			"target":34962
		},
		{
			"buffer":0,
			"byteLength":24,
			"byteOffset":480,
			"target":34962
		},
		{
			"buffer":0,
			"byteLength":48,
			"byteOffset":504,
			"target":34962
		},
		{
			"buffer":0,
			"byteLength":432,
			"byteOffset":552,
			"target":34962
		},
		{
			"buffer":0,
			"byteLength":432,
			"byteOffset":984,
			"target":34962
		},
		{
			"buffer":0,
			"byteLength":288,
			"byteOffset":1416,
			"target":34962
		},
		{
			"buffer":0,
			"byteLength":144,
			"byteOffset":1704,
			"target":34962
		},
		{
			"buffer":0,
			"byteLength":288,
			"byteOffset":1848,
			"target":34962
		},
		{
			"buffer":0,
			"byteLength":108,
			"byteOffset":2136,
			"target":34963
		},
		{
			"buffer":0,
			"byteLength":96,
			"byteOffset":2244,
			"target":34962
		},
		{
			"buffer":0,
			"byteLength":96,
			"byteOffset":2340,
			"target":34962
		},
		{
			"buffer":0,
			"byteLength":64,
			"byteOffset":2436,
			"target":34962
		},
		{
			"buffer":0,
			"byteLength":32,
			"byteOffset":2500,
			"target":34962
		},
		{
			"buffer":0,
			"byteLength":64,
			"byteOffset":2532,
			"target":34962
		},
		{
			"buffer":0,
			"byteLength":24,
			"byteOffset":2596,
			"target":34963
		},
		{
			"buffer":0,
			"byteLength":120,
			"byteOffset":2620,
			"target":34962
		},
		{
			"buffer":0,
			"byteLength":120,
			"byteOffset":2740,
			"target":34962
		},
		{
			"buffer":0,
			"byteLength":80,
			"byteOffset":2860,
			"target":34962
		},
		{
			"buffer":0,
			"byteLength":40,
			"byteOffset":2940,
			"target":34962
		},
		{
			"buffer":0,
			"byteLength":80,
			"byteOffset":2980,
			"target":34962
		},
		{
			"buffer":0,
			"byteLength":24,
			"byteOffset":3060,
			"target":34963
		},
		{
			"buffer":0,
			"byteLength":2304,
			"byteOffset":3084,
			"target":34962
		},
		{
			"buffer":0,
			"byteLength":2304,
			"byteOffset":5388,
			"target":34962
		},
		{
			"buffer":0,
			"byteLength":1536,
			"byteOffset":7692,
			"target":34962
		},
		{
			"buffer":0,
			"byteLength":744,
			"byteOffset":9228,
			"target":34963
		},
		{
			"buffer":0,
			"byteLength":2304,
			"byteOffset":9972,
			"target":34962
		},
		{
			"buffer":0,
			"byteLength":2304,
			"byteOffset":12276,
			"target":34962
		},
		{
			"buffer":0,
			"byteLength":1536,
			"byteOffset":14580,
			"target":34962
		},
		{
			"buffer":0,
			"byteLength":72,
			"byteOffset":16116,
			"target":34962
		},
		{
			"buffer":0,
			"byteLength":72,
			"byteOffset":16188,
			"target":34962
		},
		{
			"buffer":0,
			"byteLength":48,
			"byteOffset":16260,
			"target":34962
		},
		{
			"buffer":0,
			"byteLength":24,
			"byteOffset":16308,
			"target":34962
		},
		{
			"buffer":0,
			"byteLength":48,
			"byteOffset":16332,
			"target":34962
		},
		{
			"buffer":0,
			"byteLength":72,
			"byteOffset":16380,
			"target":34962
		},
		{
			"buffer":0,
			"byteLength":72,
			"byteOffset":16452,
			"target":34962
		},
		{
			"buffer":0,
			"byteLength":48,
			"byteOffset":16524,
			"target":34962
		},
		{
			"buffer":0,
			"byteLength":24,
			"byteOffset":16572,
			"target":34962
		},
		{
			"buffer":0,
			"byteLength":48,
			"byteOffset":16596,
			"target":34962
		},
		{
			"buffer":0,
			"byteLength":72,
			"byteOffset":16644,
			"target":34962
		},
		{
			"buffer":0,
			"byteLength":72,
			"byteOffset":16716,
			"target":34962
		},
		{
			"buffer":0,
			"byteLength":48,
			"byteOffset":16788,
			"target":34962
		},
		{
			"buffer":0,
			"byteLength":24,
			"byteOffset":16836,
			"target":34962
		},
		{
			"buffer":0,
			"byteLength":48,
			"byteOffset":16860,
			"target":34962
		},
		{
			"buffer":0,
			"byteLength":72,
			"byteOffset":16908,
			"target":34962
		},
		{
			"buffer":0,
			"byteLength":72,
			"byteOffset":16980,
			"target":34962
		},
		{
			"buffer":0,
			"byteLength":48,
			"byteOffset":17052,
			"target":34962
		},
		{
			"buffer":0,
			"byteLength":24,
			"byteOffset":17100,
			"target":34962
		},
		{
			"buffer":0,
			"byteLength":48,
			"byteOffset":17124,
			"target":34962
		},
		{
			"buffer":0,
			"byteLength":72,
			"byteOffset":17172,
			"target":34962
		},
		{
			"buffer":0,
			"byteLength":72,
			"byteOffset":17244,
			"target":34962
		},
		{
			"buffer":0,
			"byteLength":48,
			"byteOffset":17316,
			"target":34962
		},
		{
			"buffer":0,
			"byteLength":24,
			"byteOffset":17364,
			"target":34962
		},
		{
			"buffer":0,
			"byteLength":48,
			"byteOffset":17388,
			"target":34962
		},
		{
			"buffer":0,
			"byteLength":72,
			"byteOffset":17436,
			"target":34962
		},
		{
			"buffer":0,
			"byteLength":72,
			"byteOffset":17508,
			"target":34962
		},
		{
			"buffer":0,
			"byteLength":48,
			"byteOffset":17580,
			"target":34962
		},
		{
			"buffer":0,
			"byteLength":24,
			"byteOffset":17628,
			"target":34962
		},
		{
			"buffer":0,
			"byteLength":48,
			"byteOffset":17652,
			"target":34962
		}
	],
	"buffers":[
		{
			"byteLength":17700,
			"uri":"externalreference_example.bin"
		}
	]
}
